<?xml version="1.0" encoding="utf-8" standalone="no"?>
<!DOCTYPE svg PUBLIC "-//W3C//DTD SVG 1.1//EN"
  "http://www.w3.org/Graphics/SVG/1.1/DTD/svg11.dtd">
<svg xmlns:xlink="http://www.w3.org/1999/xlink" width="460.8pt" height="345.6pt" viewBox="0 0 460.8 345.6" xmlns="http://www.w3.org/2000/svg" version="1.1">
 <metadata>
  <rdf:RDF xmlns:dc="http://purl.org/dc/elements/1.1/" xmlns:cc="http://creativecommons.org/ns#" xmlns:rdf="http://www.w3.org/1999/02/22-rdf-syntax-ns#">
   <cc:Work>
    <dc:type rdf:resource="http://purl.org/dc/dcmitype/StillImage"/>
    <dc:date>2026-04-19T00:51:47.316625</dc:date>
    <dc:format>image/svg+xml</dc:format>
    <dc:creator>
     <cc:Agent>
      <dc:title>Matplotlib v3.10.8, https://matplotlib.org/</dc:title>
     </cc:Agent>
    </dc:creator>
   </cc:Work>
  </rdf:RDF>
 </metadata>
 <defs>
  <style type="text/css">*{stroke-linejoin: round; stroke-linecap: butt}</style>
 </defs>
 <g id="figure_1">
  <g id="patch_1">
   <path d="M 0 345.6 
L 460.8 345.6 
L 460.8 0 
L 0 0 
z
" style="fill: #ffffff"/>
  </g>
  <g id="axes_1">
   <g id="patch_2">
    <path d="M 56.9 300.76 
L 442.08 300.76 
L 442.08 28.32 
L 56.9 28.32 
z
" style="fill: #ffffff"/>
   </g>
   <g id="FillBetweenPolyCollection_1">
    <defs>
     <path id="m8c877468ef" d="M 56.9 -255.981 
L 56.9 -223.2882 
L 58.8259 -223.2882 
L 60.7518 -223.2882 
L 62.6777 -223.2882 
L 64.6036 -223.2882 
L 66.5295 -223.2882 
L 68.4554 -223.2882 
L 70.3813 -223.2882 
L 72.3072 -223.2882 
L 74.2331 -223.2882 
L 76.159 -223.2882 
L 78.0849 -223.2882 
L 80.0108 -223.2882 
L 81.9367 -223.2882 
L 83.8626 -223.2882 
L 85.7885 -223.2882 
L 87.7144 -223.2882 
L 89.6403 -223.2882 
L 91.5662 -223.2882 
L 93.4921 -223.2882 
L 95.418 -223.2882 
L 97.3439 -223.2882 
L 99.2698 -223.2882 
L 101.1957 -223.2882 
L 103.1216 -223.2882 
L 105.0475 -223.2882 
L 106.9734 -223.2882 
L 108.8993 -223.2882 
L 110.8252 -223.2882 
L 112.7511 -223.2882 
L 114.677 -223.2882 
L 116.6029 -223.2882 
L 118.5288 -223.2882 
L 120.4547 -223.2882 
L 122.3806 -223.2882 
L 124.3065 -223.2882 
L 126.2324 -223.2882 
L 128.1583 -223.2882 
L 130.0842 -223.2882 
L 132.0101 -223.2882 
L 133.936 -223.2882 
L 135.8619 -223.2882 
L 137.7878 -223.2882 
L 139.7137 -223.2882 
L 141.6396 -223.2882 
L 143.5655 -223.2882 
L 145.4914 -223.2882 
L 147.4173 -223.2882 
L 149.3432 -223.2882 
L 151.2691 -223.2882 
L 153.195 -223.2882 
L 155.1209 -223.2882 
L 157.0468 -223.2882 
L 158.9727 -223.2882 
L 160.8986 -223.2882 
L 162.8245 -223.2882 
L 164.7504 -223.2882 
L 166.6763 -223.2882 
L 168.6022 -223.2882 
L 170.5281 -223.2882 
L 172.454 -223.2882 
L 174.3799 -223.2882 
L 176.3058 -223.2882 
L 178.2317 -223.2882 
L 180.1576 -223.2882 
L 182.0835 -223.2882 
L 184.0094 -223.2882 
L 185.9353 -223.2882 
L 187.8612 -223.2882 
L 189.7871 -223.2882 
L 191.713 -223.2882 
L 193.6389 -223.2882 
L 195.5648 -223.2882 
L 197.4907 -223.2882 
L 199.4166 -223.2882 
L 201.3425 -223.2882 
L 203.2684 -223.2882 
L 205.1943 -223.2882 
L 207.1202 -223.2882 
L 209.0461 -223.2882 
L 210.972 -223.2882 
L 212.8979 -223.2882 
L 214.8238 -223.2882 
L 216.7497 -223.2882 
L 218.6756 -223.2882 
L 220.6015 -223.2882 
L 222.5274 -223.2882 
L 224.4533 -223.2882 
L 226.3792 -223.2882 
L 228.3051 -223.2882 
L 230.231 -223.2882 
L 232.1569 -223.2882 
L 234.0828 -223.2882 
L 236.0087 -223.2882 
L 237.9346 -223.2882 
L 239.8605 -223.2882 
L 241.7864 -223.2882 
L 243.7123 -223.2882 
L 245.6382 -223.2882 
L 247.5641 -223.2882 
L 249.49 -223.2882 
L 251.4159 -223.2882 
L 253.3418 -223.2882 
L 255.2677 -223.2882 
L 257.1936 -223.2882 
L 259.1195 -223.2882 
L 261.0454 -223.2882 
L 262.9713 -223.2882 
L 264.8972 -223.2882 
L 266.8231 -223.2882 
L 268.749 -223.2882 
L 270.6749 -223.2882 
L 272.6008 -223.2882 
L 274.5267 -223.2882 
L 276.4526 -223.2882 
L 278.3785 -223.2882 
L 280.3044 -223.2882 
L 282.2303 -223.2882 
L 284.1562 -223.2882 
L 286.0821 -223.2882 
L 288.008 -223.2882 
L 289.9339 -223.2882 
L 291.8598 -223.2882 
L 293.7857 -223.2882 
L 295.7116 -223.2882 
L 297.6375 -223.2882 
L 299.5634 -223.2882 
L 301.4893 -223.2882 
L 303.4152 -223.2882 
L 305.3411 -223.2882 
L 307.267 -223.2882 
L 309.1929 -223.2882 
L 311.1188 -223.2882 
L 313.0447 -223.2882 
L 314.9706 -223.2882 
L 316.8965 -223.2882 
L 318.8224 -223.2882 
L 320.7483 -223.2882 
L 322.6742 -223.2882 
L 324.6001 -223.2882 
L 326.526 -223.2882 
L 328.4519 -223.2882 
L 330.3778 -223.2882 
L 332.3037 -223.2882 
L 334.2296 -223.2882 
L 336.1555 -223.2882 
L 338.0814 -223.2882 
L 340.0073 -223.2882 
L 341.9332 -223.2882 
L 343.8591 -223.2882 
L 345.785 -223.2882 
L 347.7109 -223.2882 
L 349.6368 -223.2882 
L 351.5627 -223.2882 
L 353.4886 -223.2882 
L 355.4145 -223.2882 
L 357.3404 -223.2882 
L 359.2663 -223.2882 
L 361.1922 -223.2882 
L 363.1181 -223.2882 
L 365.044 -223.2882 
L 366.9699 -223.2882 
L 368.8958 -223.2882 
L 370.8217 -223.2882 
L 372.7476 -223.2882 
L 374.6735 -223.2882 
L 376.5994 -223.2882 
L 378.5253 -223.2882 
L 380.4512 -223.2882 
L 382.3771 -223.2882 
L 384.303 -223.2882 
L 386.2289 -223.2882 
L 388.1548 -223.2882 
L 390.0807 -223.2882 
L 392.0066 -223.2882 
L 393.9325 -223.2882 
L 395.8584 -223.2882 
L 397.7843 -223.2882 
L 399.7102 -223.2882 
L 401.6361 -223.2882 
L 403.562 -223.2882 
L 405.4879 -223.2882 
L 407.4138 -223.2882 
L 409.3397 -223.2882 
L 411.2656 -223.2882 
L 413.1915 -223.2882 
L 415.1174 -223.2882 
L 417.0433 -223.2882 
L 418.9692 -223.2882 
L 420.8951 -223.2882 
L 422.821 -223.2882 
L 424.7469 -223.2882 
L 426.6728 -223.2882 
L 428.5987 -223.2882 
L 430.5246 -223.2882 
L 432.4505 -223.2882 
L 434.3764 -223.2882 
L 436.3023 -223.2882 
L 438.2282 -223.2882 
L 440.1541 -223.2882 
L 442.08 -223.2882 
L 442.08 -255.981 
L 442.08 -255.981 
L 440.1541 -255.981 
L 438.2282 -255.981 
L 436.3023 -255.981 
L 434.3764 -255.981 
L 432.4505 -255.981 
L 430.5246 -255.981 
L 428.5987 -255.981 
L 426.6728 -255.981 
L 424.7469 -255.981 
L 422.821 -255.981 
L 420.8951 -255.981 
L 418.9692 -255.981 
L 417.0433 -255.981 
L 415.1174 -255.981 
L 413.1915 -255.981 
L 411.2656 -255.981 
L 409.3397 -255.981 
L 407.4138 -255.981 
L 405.4879 -255.981 
L 403.562 -255.981 
L 401.6361 -255.981 
L 399.7102 -255.981 
L 397.7843 -255.981 
L 395.8584 -255.981 
L 393.9325 -255.981 
L 392.0066 -255.981 
L 390.0807 -255.981 
L 388.1548 -255.981 
L 386.2289 -255.981 
L 384.303 -255.981 
L 382.3771 -255.981 
L 380.4512 -255.981 
L 378.5253 -255.981 
L 376.5994 -255.981 
L 374.6735 -255.981 
L 372.7476 -255.981 
L 370.8217 -255.981 
L 368.8958 -255.981 
L 366.9699 -255.981 
L 365.044 -255.981 
L 363.1181 -255.981 
L 361.1922 -255.981 
L 359.2663 -255.981 
L 357.3404 -255.981 
L 355.4145 -255.981 
L 353.4886 -255.981 
L 351.5627 -255.981 
L 349.6368 -255.981 
L 347.7109 -255.981 
L 345.785 -255.981 
L 343.8591 -255.981 
L 341.9332 -255.981 
L 340.0073 -255.981 
L 338.0814 -255.981 
L 336.1555 -255.981 
L 334.2296 -255.981 
L 332.3037 -255.981 
L 330.3778 -255.981 
L 328.4519 -255.981 
L 326.526 -255.981 
L 324.6001 -255.981 
L 322.6742 -255.981 
L 320.7483 -255.981 
L 318.8224 -255.981 
L 316.8965 -255.981 
L 314.9706 -255.981 
L 313.0447 -255.981 
L 311.1188 -255.981 
L 309.1929 -255.981 
L 307.267 -255.981 
L 305.3411 -255.981 
L 303.4152 -255.981 
L 301.4893 -255.981 
L 299.5634 -255.981 
L 297.6375 -255.981 
L 295.7116 -255.981 
L 293.7857 -255.981 
L 291.8598 -255.981 
L 289.9339 -255.981 
L 288.008 -255.981 
L 286.0821 -255.981 
L 284.1562 -255.981 
L 282.2303 -255.981 
L 280.3044 -255.981 
L 278.3785 -255.981 
L 276.4526 -255.981 
L 274.5267 -255.981 
L 272.6008 -255.981 
L 270.6749 -255.981 
L 268.749 -255.981 
L 266.8231 -255.981 
L 264.8972 -255.981 
L 262.9713 -255.981 
L 261.0454 -255.981 
L 259.1195 -255.981 
L 257.1936 -255.981 
L 255.2677 -255.981 
L 253.3418 -255.981 
L 251.4159 -255.981 
L 249.49 -255.981 
L 247.5641 -255.981 
L 245.6382 -255.981 
L 243.7123 -255.981 
L 241.7864 -255.981 
L 239.8605 -255.981 
L 237.9346 -255.981 
L 236.0087 -255.981 
L 234.0828 -255.981 
L 232.1569 -255.981 
L 230.231 -255.981 
L 228.3051 -255.981 
L 226.3792 -255.981 
L 224.4533 -255.981 
L 222.5274 -255.981 
L 220.6015 -255.981 
L 218.6756 -255.981 
L 216.7497 -255.981 
L 214.8238 -255.981 
L 212.8979 -255.981 
L 210.972 -255.981 
L 209.0461 -255.981 
L 207.1202 -255.981 
L 205.1943 -255.981 
L 203.2684 -255.981 
L 201.3425 -255.981 
L 199.4166 -255.981 
L 197.4907 -255.981 
L 195.5648 -255.981 
L 193.6389 -255.981 
L 191.713 -255.981 
L 189.7871 -255.981 
L 187.8612 -255.981 
L 185.9353 -255.981 
L 184.0094 -255.981 
L 182.0835 -255.981 
L 180.1576 -255.981 
L 178.2317 -255.981 
L 176.3058 -255.981 
L 174.3799 -255.981 
L 172.454 -255.981 
L 170.5281 -255.981 
L 168.6022 -255.981 
L 166.6763 -255.981 
L 164.7504 -255.981 
L 162.8245 -255.981 
L 160.8986 -255.981 
L 158.9727 -255.981 
L 157.0468 -255.981 
L 155.1209 -255.981 
L 153.195 -255.981 
L 151.2691 -255.981 
L 149.3432 -255.981 
L 147.4173 -255.981 
L 145.4914 -255.981 
L 143.5655 -255.981 
L 141.6396 -255.981 
L 139.7137 -255.981 
L 137.7878 -255.981 
L 135.8619 -255.981 
L 133.936 -255.981 
L 132.0101 -255.981 
L 130.0842 -255.981 
L 128.1583 -255.981 
L 126.2324 -255.981 
L 124.3065 -255.981 
L 122.3806 -255.981 
L 120.4547 -255.981 
L 118.5288 -255.981 
L 116.6029 -255.981 
L 114.677 -255.981 
L 112.7511 -255.981 
L 110.8252 -255.981 
L 108.8993 -255.981 
L 106.9734 -255.981 
L 105.0475 -255.981 
L 103.1216 -255.981 
L 101.1957 -255.981 
L 99.2698 -255.981 
L 97.3439 -255.981 
L 95.418 -255.981 
L 93.4921 -255.981 
L 91.5662 -255.981 
L 89.6403 -255.981 
L 87.7144 -255.981 
L 85.7885 -255.981 
L 83.8626 -255.981 
L 81.9367 -255.981 
L 80.0108 -255.981 
L 78.0849 -255.981 
L 76.159 -255.981 
L 74.2331 -255.981 
L 72.3072 -255.981 
L 70.3813 -255.981 
L 68.4554 -255.981 
L 66.5295 -255.981 
L 64.6036 -255.981 
L 62.6777 -255.981 
L 60.7518 -255.981 
L 58.8259 -255.981 
L 56.9 -255.981 
z
" style="stroke: #ff0000; stroke-opacity: 0.2"/>
    </defs>
    <g clip-path="url(#p1a2bcd01f3)">
     <use xlink:href="#m8c877468ef" x="0" y="345.6" style="fill: #ff0000; fill-opacity: 0.2; stroke: #ff0000; stroke-opacity: 0.2"/>
    </g>
   </g>
   <g id="FillBetweenPolyCollection_2">
    <defs>
     <path id="m56b870e6cb" d="M 56.9 -263.20066 
L 56.9 -262.38334 
L 58.8259 -262.38334 
L 60.7518 -262.38334 
L 62.6777 -262.38334 
L 64.6036 -262.38334 
L 66.5295 -262.38334 
L 68.4554 -262.38334 
L 70.3813 -262.38334 
L 72.3072 -262.38334 
L 74.2331 -262.38334 
L 76.159 -262.38334 
L 78.0849 -262.38334 
L 80.0108 -262.38334 
L 81.9367 -262.38334 
L 83.8626 -262.38334 
L 85.7885 -262.38334 
L 87.7144 -262.38334 
L 89.6403 -262.38334 
L 91.5662 -262.38334 
L 93.4921 -262.38334 
L 95.418 -262.38334 
L 97.3439 -262.38334 
L 99.2698 -262.38334 
L 101.1957 -262.38334 
L 103.1216 -262.38334 
L 105.0475 -262.38334 
L 106.9734 -262.38334 
L 108.8993 -262.38334 
L 110.8252 -262.38334 
L 112.7511 -262.38334 
L 114.677 -262.38334 
L 116.6029 -262.38334 
L 118.5288 -262.38334 
L 120.4547 -262.38334 
L 122.3806 -262.38334 
L 124.3065 -262.38334 
L 126.2324 -262.38334 
L 128.1583 -262.38334 
L 130.0842 -262.38334 
L 132.0101 -262.38334 
L 133.936 -262.38334 
L 135.8619 -262.38334 
L 137.7878 -262.38334 
L 139.7137 -262.38334 
L 141.6396 -262.38334 
L 143.5655 -262.38334 
L 145.4914 -262.38334 
L 147.4173 -262.38334 
L 149.3432 -262.38334 
L 151.2691 -262.38334 
L 153.195 -262.38334 
L 155.1209 -262.38334 
L 157.0468 -262.38334 
L 158.9727 -262.38334 
L 160.8986 -262.38334 
L 162.8245 -262.38334 
L 164.7504 -262.38334 
L 166.6763 -262.38334 
L 168.6022 -262.38334 
L 170.5281 -262.38334 
L 172.454 -262.38334 
L 174.3799 -262.38334 
L 176.3058 -262.38334 
L 178.2317 -262.38334 
L 180.1576 -262.38334 
L 182.0835 -262.38334 
L 184.0094 -262.38334 
L 185.9353 -262.38334 
L 187.8612 -262.38334 
L 189.7871 -262.38334 
L 191.713 -262.38334 
L 193.6389 -262.38334 
L 195.5648 -262.38334 
L 197.4907 -262.38334 
L 199.4166 -262.38334 
L 201.3425 -262.38334 
L 203.2684 -262.38334 
L 205.1943 -262.38334 
L 207.1202 -262.38334 
L 209.0461 -262.38334 
L 210.972 -262.38334 
L 212.8979 -262.38334 
L 214.8238 -262.38334 
L 216.7497 -262.38334 
L 218.6756 -262.38334 
L 220.6015 -262.38334 
L 222.5274 -262.38334 
L 224.4533 -262.38334 
L 226.3792 -262.38334 
L 228.3051 -262.38334 
L 230.231 -262.38334 
L 232.1569 -262.38334 
L 234.0828 -262.38334 
L 236.0087 -262.38334 
L 237.9346 -262.38334 
L 239.8605 -262.38334 
L 241.7864 -262.38334 
L 243.7123 -262.38334 
L 245.6382 -262.38334 
L 247.5641 -262.38334 
L 249.49 -262.38334 
L 251.4159 -262.38334 
L 253.3418 -262.38334 
L 255.2677 -262.38334 
L 257.1936 -262.38334 
L 259.1195 -262.38334 
L 261.0454 -262.38334 
L 262.9713 -262.38334 
L 264.8972 -262.38334 
L 266.8231 -262.38334 
L 268.749 -262.38334 
L 270.6749 -262.38334 
L 272.6008 -262.38334 
L 274.5267 -262.38334 
L 276.4526 -262.38334 
L 278.3785 -262.38334 
L 280.3044 -262.38334 
L 282.2303 -262.38334 
L 284.1562 -262.38334 
L 286.0821 -262.38334 
L 288.008 -262.38334 
L 289.9339 -262.38334 
L 291.8598 -262.38334 
L 293.7857 -262.38334 
L 295.7116 -262.38334 
L 297.6375 -262.38334 
L 299.5634 -262.38334 
L 301.4893 -262.38334 
L 303.4152 -262.38334 
L 305.3411 -262.38334 
L 307.267 -262.38334 
L 309.1929 -262.38334 
L 311.1188 -262.38334 
L 313.0447 -262.38334 
L 314.9706 -262.38334 
L 316.8965 -262.38334 
L 318.8224 -262.38334 
L 320.7483 -262.38334 
L 322.6742 -262.38334 
L 324.6001 -262.38334 
L 326.526 -262.38334 
L 328.4519 -262.38334 
L 330.3778 -262.38334 
L 332.3037 -262.38334 
L 334.2296 -262.38334 
L 336.1555 -262.38334 
L 338.0814 -262.38334 
L 340.0073 -262.38334 
L 341.9332 -262.38334 
L 343.8591 -262.38334 
L 345.785 -262.38334 
L 347.7109 -262.38334 
L 349.6368 -262.38334 
L 351.5627 -262.38334 
L 353.4886 -262.38334 
L 355.4145 -262.38334 
L 357.3404 -262.38334 
L 359.2663 -262.38334 
L 361.1922 -262.38334 
L 363.1181 -262.38334 
L 365.044 -262.38334 
L 366.9699 -262.38334 
L 368.8958 -262.38334 
L 370.8217 -262.38334 
L 372.7476 -262.38334 
L 374.6735 -262.38334 
L 376.5994 -262.38334 
L 378.5253 -262.38334 
L 380.4512 -262.38334 
L 382.3771 -262.38334 
L 384.303 -262.38334 
L 386.2289 -262.38334 
L 388.1548 -262.38334 
L 390.0807 -262.38334 
L 392.0066 -262.38334 
L 393.9325 -262.38334 
L 395.8584 -262.38334 
L 397.7843 -262.38334 
L 399.7102 -262.38334 
L 401.6361 -262.38334 
L 403.562 -262.38334 
L 405.4879 -262.38334 
L 407.4138 -262.38334 
L 409.3397 -262.38334 
L 411.2656 -262.38334 
L 413.1915 -262.38334 
L 415.1174 -262.38334 
L 417.0433 -262.38334 
L 418.9692 -262.38334 
L 420.8951 -262.38334 
L 422.821 -262.38334 
L 424.7469 -262.38334 
L 426.6728 -262.38334 
L 428.5987 -262.38334 
L 430.5246 -262.38334 
L 432.4505 -262.38334 
L 434.3764 -262.38334 
L 436.3023 -262.38334 
L 438.2282 -262.38334 
L 440.1541 -262.38334 
L 442.08 -262.38334 
L 442.08 -263.20066 
L 442.08 -263.20066 
L 440.1541 -263.20066 
L 438.2282 -263.20066 
L 436.3023 -263.20066 
L 434.3764 -263.20066 
L 432.4505 -263.20066 
L 430.5246 -263.20066 
L 428.5987 -263.20066 
L 426.6728 -263.20066 
L 424.7469 -263.20066 
L 422.821 -263.20066 
L 420.8951 -263.20066 
L 418.9692 -263.20066 
L 417.0433 -263.20066 
L 415.1174 -263.20066 
L 413.1915 -263.20066 
L 411.2656 -263.20066 
L 409.3397 -263.20066 
L 407.4138 -263.20066 
L 405.4879 -263.20066 
L 403.562 -263.20066 
L 401.6361 -263.20066 
L 399.7102 -263.20066 
L 397.7843 -263.20066 
L 395.8584 -263.20066 
L 393.9325 -263.20066 
L 392.0066 -263.20066 
L 390.0807 -263.20066 
L 388.1548 -263.20066 
L 386.2289 -263.20066 
L 384.303 -263.20066 
L 382.3771 -263.20066 
L 380.4512 -263.20066 
L 378.5253 -263.20066 
L 376.5994 -263.20066 
L 374.6735 -263.20066 
L 372.7476 -263.20066 
L 370.8217 -263.20066 
L 368.8958 -263.20066 
L 366.9699 -263.20066 
L 365.044 -263.20066 
L 363.1181 -263.20066 
L 361.1922 -263.20066 
L 359.2663 -263.20066 
L 357.3404 -263.20066 
L 355.4145 -263.20066 
L 353.4886 -263.20066 
L 351.5627 -263.20066 
L 349.6368 -263.20066 
L 347.7109 -263.20066 
L 345.785 -263.20066 
L 343.8591 -263.20066 
L 341.9332 -263.20066 
L 340.0073 -263.20066 
L 338.0814 -263.20066 
L 336.1555 -263.20066 
L 334.2296 -263.20066 
L 332.3037 -263.20066 
L 330.3778 -263.20066 
L 328.4519 -263.20066 
L 326.526 -263.20066 
L 324.6001 -263.20066 
L 322.6742 -263.20066 
L 320.7483 -263.20066 
L 318.8224 -263.20066 
L 316.8965 -263.20066 
L 314.9706 -263.20066 
L 313.0447 -263.20066 
L 311.1188 -263.20066 
L 309.1929 -263.20066 
L 307.267 -263.20066 
L 305.3411 -263.20066 
L 303.4152 -263.20066 
L 301.4893 -263.20066 
L 299.5634 -263.20066 
L 297.6375 -263.20066 
L 295.7116 -263.20066 
L 293.7857 -263.20066 
L 291.8598 -263.20066 
L 289.9339 -263.20066 
L 288.008 -263.20066 
L 286.0821 -263.20066 
L 284.1562 -263.20066 
L 282.2303 -263.20066 
L 280.3044 -263.20066 
L 278.3785 -263.20066 
L 276.4526 -263.20066 
L 274.5267 -263.20066 
L 272.6008 -263.20066 
L 270.6749 -263.20066 
L 268.749 -263.20066 
L 266.8231 -263.20066 
L 264.8972 -263.20066 
L 262.9713 -263.20066 
L 261.0454 -263.20066 
L 259.1195 -263.20066 
L 257.1936 -263.20066 
L 255.2677 -263.20066 
L 253.3418 -263.20066 
L 251.4159 -263.20066 
L 249.49 -263.20066 
L 247.5641 -263.20066 
L 245.6382 -263.20066 
L 243.7123 -263.20066 
L 241.7864 -263.20066 
L 239.8605 -263.20066 
L 237.9346 -263.20066 
L 236.0087 -263.20066 
L 234.0828 -263.20066 
L 232.1569 -263.20066 
L 230.231 -263.20066 
L 228.3051 -263.20066 
L 226.3792 -263.20066 
L 224.4533 -263.20066 
L 222.5274 -263.20066 
L 220.6015 -263.20066 
L 218.6756 -263.20066 
L 216.7497 -263.20066 
L 214.8238 -263.20066 
L 212.8979 -263.20066 
L 210.972 -263.20066 
L 209.0461 -263.20066 
L 207.1202 -263.20066 
L 205.1943 -263.20066 
L 203.2684 -263.20066 
L 201.3425 -263.20066 
L 199.4166 -263.20066 
L 197.4907 -263.20066 
L 195.5648 -263.20066 
L 193.6389 -263.20066 
L 191.713 -263.20066 
L 189.7871 -263.20066 
L 187.8612 -263.20066 
L 185.9353 -263.20066 
L 184.0094 -263.20066 
L 182.0835 -263.20066 
L 180.1576 -263.20066 
L 178.2317 -263.20066 
L 176.3058 -263.20066 
L 174.3799 -263.20066 
L 172.454 -263.20066 
L 170.5281 -263.20066 
L 168.6022 -263.20066 
L 166.6763 -263.20066 
L 164.7504 -263.20066 
L 162.8245 -263.20066 
L 160.8986 -263.20066 
L 158.9727 -263.20066 
L 157.0468 -263.20066 
L 155.1209 -263.20066 
L 153.195 -263.20066 
L 151.2691 -263.20066 
L 149.3432 -263.20066 
L 147.4173 -263.20066 
L 145.4914 -263.20066 
L 143.5655 -263.20066 
L 141.6396 -263.20066 
L 139.7137 -263.20066 
L 137.7878 -263.20066 
L 135.8619 -263.20066 
L 133.936 -263.20066 
L 132.0101 -263.20066 
L 130.0842 -263.20066 
L 128.1583 -263.20066 
L 126.2324 -263.20066 
L 124.3065 -263.20066 
L 122.3806 -263.20066 
L 120.4547 -263.20066 
L 118.5288 -263.20066 
L 116.6029 -263.20066 
L 114.677 -263.20066 
L 112.7511 -263.20066 
L 110.8252 -263.20066 
L 108.8993 -263.20066 
L 106.9734 -263.20066 
L 105.0475 -263.20066 
L 103.1216 -263.20066 
L 101.1957 -263.20066 
L 99.2698 -263.20066 
L 97.3439 -263.20066 
L 95.418 -263.20066 
L 93.4921 -263.20066 
L 91.5662 -263.20066 
L 89.6403 -263.20066 
L 87.7144 -263.20066 
L 85.7885 -263.20066 
L 83.8626 -263.20066 
L 81.9367 -263.20066 
L 80.0108 -263.20066 
L 78.0849 -263.20066 
L 76.159 -263.20066 
L 74.2331 -263.20066 
L 72.3072 -263.20066 
L 70.3813 -263.20066 
L 68.4554 -263.20066 
L 66.5295 -263.20066 
L 64.6036 -263.20066 
L 62.6777 -263.20066 
L 60.7518 -263.20066 
L 58.8259 -263.20066 
L 56.9 -263.20066 
z
" style="stroke: #9467bd; stroke-opacity: 0.15"/>
    </defs>
    <g clip-path="url(#p1a2bcd01f3)">
     <use xlink:href="#m56b870e6cb" x="0" y="345.6" style="fill: #9467bd; fill-opacity: 0.15; stroke: #9467bd; stroke-opacity: 0.15"/>
    </g>
   </g>
   <g id="matplotlib.axis_1">
    <g id="xtick_1">
     <g id="line2d_1">
      <path d="M 56.9 300.76 
L 56.9 28.32 
" clip-path="url(#p1a2bcd01f3)" style="fill: none; stroke: #b0b0b0; stroke-width: 0.8; stroke-linecap: square"/>
     </g>
     <g id="line2d_2">
      <defs>
       <path id="m9924f013e6" d="M 0 0 
L 0 3.5 
" style="stroke: #000000; stroke-width: 0.8"/>
      </defs>
      <g>
       <use xlink:href="#m9924f013e6" x="56.9" y="300.76" style="stroke: #000000; stroke-width: 0.8"/>
      </g>
     </g>
     <g id="text_1">
      <!-- 0.0 -->
      <g transform="translate(48.948438 315.358437) scale(0.1 -0.1)">
       <defs>
        <path id="DejaVuSans-30" d="M 2034 4250 
Q 1547 4250 1301 3770 
Q 1056 3291 1056 2328 
Q 1056 1369 1301 889 
Q 1547 409 2034 409 
Q 2525 409 2770 889 
Q 3016 1369 3016 2328 
Q 3016 3291 2770 3770 
Q 2525 4250 2034 4250 
z
M 2034 4750 
Q 2819 4750 3233 4129 
Q 3647 3509 3647 2328 
Q 3647 1150 3233 529 
Q 2819 -91 2034 -91 
Q 1250 -91 836 529 
Q 422 1150 422 2328 
Q 422 3509 836 4129 
Q 1250 4750 2034 4750 
z
" transform="scale(0.015625)"/>
        <path id="DejaVuSans-2e" d="M 684 794 
L 1344 794 
L 1344 0 
L 684 0 
L 684 794 
z
" transform="scale(0.015625)"/>
       </defs>
       <use xlink:href="#DejaVuSans-30"/>
       <use xlink:href="#DejaVuSans-2e" transform="translate(63.623047 0)"/>
       <use xlink:href="#DejaVuSans-30" transform="translate(95.410156 0)"/>
      </g>
     </g>
    </g>
    <g id="xtick_2">
     <g id="line2d_3">
      <path d="M 133.936 300.76 
L 133.936 28.32 
" clip-path="url(#p1a2bcd01f3)" style="fill: none; stroke: #b0b0b0; stroke-width: 0.8; stroke-linecap: square"/>
     </g>
     <g id="line2d_4">
      <g>
       <use xlink:href="#m9924f013e6" x="133.936" y="300.76" style="stroke: #000000; stroke-width: 0.8"/>
      </g>
     </g>
     <g id="text_2">
      <!-- 0.2 -->
      <g transform="translate(125.984438 315.358437) scale(0.1 -0.1)">
       <defs>
        <path id="DejaVuSans-32" d="M 1228 531 
L 3431 531 
L 3431 0 
L 469 0 
L 469 531 
Q 828 903 1448 1529 
Q 2069 2156 2228 2338 
Q 2531 2678 2651 2914 
Q 2772 3150 2772 3378 
Q 2772 3750 2511 3984 
Q 2250 4219 1831 4219 
Q 1534 4219 1204 4116 
Q 875 4013 500 3803 
L 500 4441 
Q 881 4594 1212 4672 
Q 1544 4750 1819 4750 
Q 2544 4750 2975 4387 
Q 3406 4025 3406 3419 
Q 3406 3131 3298 2873 
Q 3191 2616 2906 2266 
Q 2828 2175 2409 1742 
Q 1991 1309 1228 531 
z
" transform="scale(0.015625)"/>
       </defs>
       <use xlink:href="#DejaVuSans-30"/>
       <use xlink:href="#DejaVuSans-2e" transform="translate(63.623047 0)"/>
       <use xlink:href="#DejaVuSans-32" transform="translate(95.410156 0)"/>
      </g>
     </g>
    </g>
    <g id="xtick_3">
     <g id="line2d_5">
      <path d="M 210.972 300.76 
L 210.972 28.32 
" clip-path="url(#p1a2bcd01f3)" style="fill: none; stroke: #b0b0b0; stroke-width: 0.8; stroke-linecap: square"/>
     </g>
     <g id="line2d_6">
      <g>
       <use xlink:href="#m9924f013e6" x="210.972" y="300.76" style="stroke: #000000; stroke-width: 0.8"/>
      </g>
     </g>
     <g id="text_3">
      <!-- 0.4 -->
      <g transform="translate(203.020438 315.358437) scale(0.1 -0.1)">
       <defs>
        <path id="DejaVuSans-34" d="M 2419 4116 
L 825 1625 
L 2419 1625 
L 2419 4116 
z
M 2253 4666 
L 3047 4666 
L 3047 1625 
L 3713 1625 
L 3713 1100 
L 3047 1100 
L 3047 0 
L 2419 0 
L 2419 1100 
L 313 1100 
L 313 1709 
L 2253 4666 
z
" transform="scale(0.015625)"/>
       </defs>
       <use xlink:href="#DejaVuSans-30"/>
       <use xlink:href="#DejaVuSans-2e" transform="translate(63.623047 0)"/>
       <use xlink:href="#DejaVuSans-34" transform="translate(95.410156 0)"/>
      </g>
     </g>
    </g>
    <g id="xtick_4">
     <g id="line2d_7">
      <path d="M 288.008 300.76 
L 288.008 28.32 
" clip-path="url(#p1a2bcd01f3)" style="fill: none; stroke: #b0b0b0; stroke-width: 0.8; stroke-linecap: square"/>
     </g>
     <g id="line2d_8">
      <g>
       <use xlink:href="#m9924f013e6" x="288.008" y="300.76" style="stroke: #000000; stroke-width: 0.8"/>
      </g>
     </g>
     <g id="text_4">
      <!-- 0.6 -->
      <g transform="translate(280.056438 315.358437) scale(0.1 -0.1)">
       <defs>
        <path id="DejaVuSans-36" d="M 2113 2584 
Q 1688 2584 1439 2293 
Q 1191 2003 1191 1497 
Q 1191 994 1439 701 
Q 1688 409 2113 409 
Q 2538 409 2786 701 
Q 3034 994 3034 1497 
Q 3034 2003 2786 2293 
Q 2538 2584 2113 2584 
z
M 3366 4563 
L 3366 3988 
Q 3128 4100 2886 4159 
Q 2644 4219 2406 4219 
Q 1781 4219 1451 3797 
Q 1122 3375 1075 2522 
Q 1259 2794 1537 2939 
Q 1816 3084 2150 3084 
Q 2853 3084 3261 2657 
Q 3669 2231 3669 1497 
Q 3669 778 3244 343 
Q 2819 -91 2113 -91 
Q 1303 -91 875 529 
Q 447 1150 447 2328 
Q 447 3434 972 4092 
Q 1497 4750 2381 4750 
Q 2619 4750 2861 4703 
Q 3103 4656 3366 4563 
z
" transform="scale(0.015625)"/>
       </defs>
       <use xlink:href="#DejaVuSans-30"/>
       <use xlink:href="#DejaVuSans-2e" transform="translate(63.623047 0)"/>
       <use xlink:href="#DejaVuSans-36" transform="translate(95.410156 0)"/>
      </g>
     </g>
    </g>
    <g id="xtick_5">
     <g id="line2d_9">
      <path d="M 365.044 300.76 
L 365.044 28.32 
" clip-path="url(#p1a2bcd01f3)" style="fill: none; stroke: #b0b0b0; stroke-width: 0.8; stroke-linecap: square"/>
     </g>
     <g id="line2d_10">
      <g>
       <use xlink:href="#m9924f013e6" x="365.044" y="300.76" style="stroke: #000000; stroke-width: 0.8"/>
      </g>
     </g>
     <g id="text_5">
      <!-- 0.8 -->
      <g transform="translate(357.092437 315.358437) scale(0.1 -0.1)">
       <defs>
        <path id="DejaVuSans-38" d="M 2034 2216 
Q 1584 2216 1326 1975 
Q 1069 1734 1069 1313 
Q 1069 891 1326 650 
Q 1584 409 2034 409 
Q 2484 409 2743 651 
Q 3003 894 3003 1313 
Q 3003 1734 2745 1975 
Q 2488 2216 2034 2216 
z
M 1403 2484 
Q 997 2584 770 2862 
Q 544 3141 544 3541 
Q 544 4100 942 4425 
Q 1341 4750 2034 4750 
Q 2731 4750 3128 4425 
Q 3525 4100 3525 3541 
Q 3525 3141 3298 2862 
Q 3072 2584 2669 2484 
Q 3125 2378 3379 2068 
Q 3634 1759 3634 1313 
Q 3634 634 3220 271 
Q 2806 -91 2034 -91 
Q 1263 -91 848 271 
Q 434 634 434 1313 
Q 434 1759 690 2068 
Q 947 2378 1403 2484 
z
M 1172 3481 
Q 1172 3119 1398 2916 
Q 1625 2713 2034 2713 
Q 2441 2713 2670 2916 
Q 2900 3119 2900 3481 
Q 2900 3844 2670 4047 
Q 2441 4250 2034 4250 
Q 1625 4250 1398 4047 
Q 1172 3844 1172 3481 
z
" transform="scale(0.015625)"/>
       </defs>
       <use xlink:href="#DejaVuSans-30"/>
       <use xlink:href="#DejaVuSans-2e" transform="translate(63.623047 0)"/>
       <use xlink:href="#DejaVuSans-38" transform="translate(95.410156 0)"/>
      </g>
     </g>
    </g>
    <g id="xtick_6">
     <g id="line2d_11">
      <path d="M 442.08 300.76 
L 442.08 28.32 
" clip-path="url(#p1a2bcd01f3)" style="fill: none; stroke: #b0b0b0; stroke-width: 0.8; stroke-linecap: square"/>
     </g>
     <g id="line2d_12">
      <g>
       <use xlink:href="#m9924f013e6" x="442.08" y="300.76" style="stroke: #000000; stroke-width: 0.8"/>
      </g>
     </g>
     <g id="text_6">
      <!-- 1.0 -->
      <g transform="translate(434.128437 315.358437) scale(0.1 -0.1)">
       <defs>
        <path id="DejaVuSans-31" d="M 794 531 
L 1825 531 
L 1825 4091 
L 703 3866 
L 703 4441 
L 1819 4666 
L 2450 4666 
L 2450 531 
L 3481 531 
L 3481 0 
L 794 0 
L 794 531 
z
" transform="scale(0.015625)"/>
       </defs>
       <use xlink:href="#DejaVuSans-31"/>
       <use xlink:href="#DejaVuSans-2e" transform="translate(63.623047 0)"/>
       <use xlink:href="#DejaVuSans-30" transform="translate(95.410156 0)"/>
      </g>
     </g>
    </g>
    <g id="text_7">
     <!-- $\beta$ (amplitude imbalance parameter) -->
     <g transform="translate(159.99 329.138125) scale(0.1 -0.1)">
      <defs>
       <path id="DejaVuSans-Oblique-3b2" d="M 872 216 
L 572 -1331 
L -6 -1331 
L 928 3478 
Q 1206 4903 2538 4903 
Q 3888 4903 3659 3700 
Q 3503 2844 2894 2531 
Q 3713 2250 3553 1416 
Q 3272 -69 1759 -66 
Q 1097 -63 872 216 
z
M 1019 966 
Q 1259 422 1875 425 
Q 2775 425 2966 1406 
Q 3138 2288 1675 2219 
L 1778 2750 
Q 2909 2731 3106 3750 
Q 3241 4438 2509 4434 
Q 1691 4434 1503 3459 
L 1019 966 
z
" transform="scale(0.015625)"/>
       <path id="DejaVuSans-20" transform="scale(0.015625)"/>
       <path id="DejaVuSans-28" d="M 1984 4856 
Q 1566 4138 1362 3434 
Q 1159 2731 1159 2009 
Q 1159 1288 1364 580 
Q 1569 -128 1984 -844 
L 1484 -844 
Q 1016 -109 783 600 
Q 550 1309 550 2009 
Q 550 2706 781 3412 
Q 1013 4119 1484 4856 
L 1984 4856 
z
" transform="scale(0.015625)"/>
       <path id="DejaVuSans-61" d="M 2194 1759 
Q 1497 1759 1228 1600 
Q 959 1441 959 1056 
Q 959 750 1161 570 
Q 1363 391 1709 391 
Q 2188 391 2477 730 
Q 2766 1069 2766 1631 
L 2766 1759 
L 2194 1759 
z
M 3341 1997 
L 3341 0 
L 2766 0 
L 2766 531 
Q 2569 213 2275 61 
Q 1981 -91 1556 -91 
Q 1019 -91 701 211 
Q 384 513 384 1019 
Q 384 1609 779 1909 
Q 1175 2209 1959 2209 
L 2766 2209 
L 2766 2266 
Q 2766 2663 2505 2880 
Q 2244 3097 1772 3097 
Q 1472 3097 1187 3025 
Q 903 2953 641 2809 
L 641 3341 
Q 956 3463 1253 3523 
Q 1550 3584 1831 3584 
Q 2591 3584 2966 3190 
Q 3341 2797 3341 1997 
z
" transform="scale(0.015625)"/>
       <path id="DejaVuSans-6d" d="M 3328 2828 
Q 3544 3216 3844 3400 
Q 4144 3584 4550 3584 
Q 5097 3584 5394 3201 
Q 5691 2819 5691 2113 
L 5691 0 
L 5113 0 
L 5113 2094 
Q 5113 2597 4934 2840 
Q 4756 3084 4391 3084 
Q 3944 3084 3684 2787 
Q 3425 2491 3425 1978 
L 3425 0 
L 2847 0 
L 2847 2094 
Q 2847 2600 2669 2842 
Q 2491 3084 2119 3084 
Q 1678 3084 1418 2786 
Q 1159 2488 1159 1978 
L 1159 0 
L 581 0 
L 581 3500 
L 1159 3500 
L 1159 2956 
Q 1356 3278 1631 3431 
Q 1906 3584 2284 3584 
Q 2666 3584 2933 3390 
Q 3200 3197 3328 2828 
z
" transform="scale(0.015625)"/>
       <path id="DejaVuSans-70" d="M 1159 525 
L 1159 -1331 
L 581 -1331 
L 581 3500 
L 1159 3500 
L 1159 2969 
Q 1341 3281 1617 3432 
Q 1894 3584 2278 3584 
Q 2916 3584 3314 3078 
Q 3713 2572 3713 1747 
Q 3713 922 3314 415 
Q 2916 -91 2278 -91 
Q 1894 -91 1617 61 
Q 1341 213 1159 525 
z
M 3116 1747 
Q 3116 2381 2855 2742 
Q 2594 3103 2138 3103 
Q 1681 3103 1420 2742 
Q 1159 2381 1159 1747 
Q 1159 1113 1420 752 
Q 1681 391 2138 391 
Q 2594 391 2855 752 
Q 3116 1113 3116 1747 
z
" transform="scale(0.015625)"/>
       <path id="DejaVuSans-6c" d="M 603 4863 
L 1178 4863 
L 1178 0 
L 603 0 
L 603 4863 
z
" transform="scale(0.015625)"/>
       <path id="DejaVuSans-69" d="M 603 3500 
L 1178 3500 
L 1178 0 
L 603 0 
L 603 3500 
z
M 603 4863 
L 1178 4863 
L 1178 4134 
L 603 4134 
L 603 4863 
z
" transform="scale(0.015625)"/>
       <path id="DejaVuSans-74" d="M 1172 4494 
L 1172 3500 
L 2356 3500 
L 2356 3053 
L 1172 3053 
L 1172 1153 
Q 1172 725 1289 603 
Q 1406 481 1766 481 
L 2356 481 
L 2356 0 
L 1766 0 
Q 1100 0 847 248 
Q 594 497 594 1153 
L 594 3053 
L 172 3053 
L 172 3500 
L 594 3500 
L 594 4494 
L 1172 4494 
z
" transform="scale(0.015625)"/>
       <path id="DejaVuSans-75" d="M 544 1381 
L 544 3500 
L 1119 3500 
L 1119 1403 
Q 1119 906 1312 657 
Q 1506 409 1894 409 
Q 2359 409 2629 706 
Q 2900 1003 2900 1516 
L 2900 3500 
L 3475 3500 
L 3475 0 
L 2900 0 
L 2900 538 
Q 2691 219 2414 64 
Q 2138 -91 1772 -91 
Q 1169 -91 856 284 
Q 544 659 544 1381 
z
M 1991 3584 
L 1991 3584 
z
" transform="scale(0.015625)"/>
       <path id="DejaVuSans-64" d="M 2906 2969 
L 2906 4863 
L 3481 4863 
L 3481 0 
L 2906 0 
L 2906 525 
Q 2725 213 2448 61 
Q 2172 -91 1784 -91 
Q 1150 -91 751 415 
Q 353 922 353 1747 
Q 353 2572 751 3078 
Q 1150 3584 1784 3584 
Q 2172 3584 2448 3432 
Q 2725 3281 2906 2969 
z
M 947 1747 
Q 947 1113 1208 752 
Q 1469 391 1925 391 
Q 2381 391 2643 752 
Q 2906 1113 2906 1747 
Q 2906 2381 2643 2742 
Q 2381 3103 1925 3103 
Q 1469 3103 1208 2742 
Q 947 2381 947 1747 
z
" transform="scale(0.015625)"/>
       <path id="DejaVuSans-65" d="M 3597 1894 
L 3597 1613 
L 953 1613 
Q 991 1019 1311 708 
Q 1631 397 2203 397 
Q 2534 397 2845 478 
Q 3156 559 3463 722 
L 3463 178 
Q 3153 47 2828 -22 
Q 2503 -91 2169 -91 
Q 1331 -91 842 396 
Q 353 884 353 1716 
Q 353 2575 817 3079 
Q 1281 3584 2069 3584 
Q 2775 3584 3186 3129 
Q 3597 2675 3597 1894 
z
M 3022 2063 
Q 3016 2534 2758 2815 
Q 2500 3097 2075 3097 
Q 1594 3097 1305 2825 
Q 1016 2553 972 2059 
L 3022 2063 
z
" transform="scale(0.015625)"/>
       <path id="DejaVuSans-62" d="M 3116 1747 
Q 3116 2381 2855 2742 
Q 2594 3103 2138 3103 
Q 1681 3103 1420 2742 
Q 1159 2381 1159 1747 
Q 1159 1113 1420 752 
Q 1681 391 2138 391 
Q 2594 391 2855 752 
Q 3116 1113 3116 1747 
z
M 1159 2969 
Q 1341 3281 1617 3432 
Q 1894 3584 2278 3584 
Q 2916 3584 3314 3078 
Q 3713 2572 3713 1747 
Q 3713 922 3314 415 
Q 2916 -91 2278 -91 
Q 1894 -91 1617 61 
Q 1341 213 1159 525 
L 1159 0 
L 581 0 
L 581 4863 
L 1159 4863 
L 1159 2969 
z
" transform="scale(0.015625)"/>
       <path id="DejaVuSans-6e" d="M 3513 2113 
L 3513 0 
L 2938 0 
L 2938 2094 
Q 2938 2591 2744 2837 
Q 2550 3084 2163 3084 
Q 1697 3084 1428 2787 
Q 1159 2491 1159 1978 
L 1159 0 
L 581 0 
L 581 3500 
L 1159 3500 
L 1159 2956 
Q 1366 3272 1645 3428 
Q 1925 3584 2291 3584 
Q 2894 3584 3203 3211 
Q 3513 2838 3513 2113 
z
" transform="scale(0.015625)"/>
       <path id="DejaVuSans-63" d="M 3122 3366 
L 3122 2828 
Q 2878 2963 2633 3030 
Q 2388 3097 2138 3097 
Q 1578 3097 1268 2742 
Q 959 2388 959 1747 
Q 959 1106 1268 751 
Q 1578 397 2138 397 
Q 2388 397 2633 464 
Q 2878 531 3122 666 
L 3122 134 
Q 2881 22 2623 -34 
Q 2366 -91 2075 -91 
Q 1284 -91 818 406 
Q 353 903 353 1747 
Q 353 2603 823 3093 
Q 1294 3584 2113 3584 
Q 2378 3584 2631 3529 
Q 2884 3475 3122 3366 
z
" transform="scale(0.015625)"/>
       <path id="DejaVuSans-72" d="M 2631 2963 
Q 2534 3019 2420 3045 
Q 2306 3072 2169 3072 
Q 1681 3072 1420 2755 
Q 1159 2438 1159 1844 
L 1159 0 
L 581 0 
L 581 3500 
L 1159 3500 
L 1159 2956 
Q 1341 3275 1631 3429 
Q 1922 3584 2338 3584 
Q 2397 3584 2469 3576 
Q 2541 3569 2628 3553 
L 2631 2963 
z
" transform="scale(0.015625)"/>
       <path id="DejaVuSans-29" d="M 513 4856 
L 1013 4856 
Q 1481 4119 1714 3412 
Q 1947 2706 1947 2009 
Q 1947 1309 1714 600 
Q 1481 -109 1013 -844 
L 513 -844 
Q 928 -128 1133 580 
Q 1338 1288 1338 2009 
Q 1338 2731 1133 3434 
Q 928 4138 513 4856 
z
" transform="scale(0.015625)"/>
      </defs>
      <use xlink:href="#DejaVuSans-Oblique-3b2" transform="translate(0 0.390625)"/>
      <use xlink:href="#DejaVuSans-20" transform="translate(63.818359 0.390625)"/>
      <use xlink:href="#DejaVuSans-28" transform="translate(95.605469 0.390625)"/>
      <use xlink:href="#DejaVuSans-61" transform="translate(134.619141 0.390625)"/>
      <use xlink:href="#DejaVuSans-6d" transform="translate(195.898438 0.390625)"/>
      <use xlink:href="#DejaVuSans-70" transform="translate(293.310547 0.390625)"/>
      <use xlink:href="#DejaVuSans-6c" transform="translate(356.787109 0.390625)"/>
      <use xlink:href="#DejaVuSans-69" transform="translate(384.570312 0.390625)"/>
      <use xlink:href="#DejaVuSans-74" transform="translate(412.353516 0.390625)"/>
      <use xlink:href="#DejaVuSans-75" transform="translate(451.5625 0.390625)"/>
      <use xlink:href="#DejaVuSans-64" transform="translate(514.941406 0.390625)"/>
      <use xlink:href="#DejaVuSans-65" transform="translate(578.417969 0.390625)"/>
      <use xlink:href="#DejaVuSans-20" transform="translate(639.941406 0.390625)"/>
      <use xlink:href="#DejaVuSans-69" transform="translate(671.728516 0.390625)"/>
      <use xlink:href="#DejaVuSans-6d" transform="translate(699.511719 0.390625)"/>
      <use xlink:href="#DejaVuSans-62" transform="translate(796.923828 0.390625)"/>
      <use xlink:href="#DejaVuSans-61" transform="translate(860.400391 0.390625)"/>
      <use xlink:href="#DejaVuSans-6c" transform="translate(921.679688 0.390625)"/>
      <use xlink:href="#DejaVuSans-61" transform="translate(949.462891 0.390625)"/>
      <use xlink:href="#DejaVuSans-6e" transform="translate(1010.742188 0.390625)"/>
      <use xlink:href="#DejaVuSans-63" transform="translate(1074.121094 0.390625)"/>
      <use xlink:href="#DejaVuSans-65" transform="translate(1129.101562 0.390625)"/>
      <use xlink:href="#DejaVuSans-20" transform="translate(1190.625 0.390625)"/>
      <use xlink:href="#DejaVuSans-70" transform="translate(1222.412109 0.390625)"/>
      <use xlink:href="#DejaVuSans-61" transform="translate(1285.888672 0.390625)"/>
      <use xlink:href="#DejaVuSans-72" transform="translate(1347.167969 0.390625)"/>
      <use xlink:href="#DejaVuSans-61" transform="translate(1388.28125 0.390625)"/>
      <use xlink:href="#DejaVuSans-6d" transform="translate(1449.560547 0.390625)"/>
      <use xlink:href="#DejaVuSans-65" transform="translate(1546.972656 0.390625)"/>
      <use xlink:href="#DejaVuSans-74" transform="translate(1608.496094 0.390625)"/>
      <use xlink:href="#DejaVuSans-65" transform="translate(1647.705078 0.390625)"/>
      <use xlink:href="#DejaVuSans-72" transform="translate(1709.228516 0.390625)"/>
      <use xlink:href="#DejaVuSans-29" transform="translate(1750.341797 0.390625)"/>
     </g>
    </g>
   </g>
   <g id="matplotlib.axis_2">
    <g id="ytick_1">
     <g id="line2d_13">
      <path d="M 56.9 300.76 
L 442.08 300.76 
" clip-path="url(#p1a2bcd01f3)" style="fill: none; stroke: #b0b0b0; stroke-width: 0.8; stroke-linecap: square"/>
     </g>
     <g id="line2d_14">
      <defs>
       <path id="m1e296d81fc" d="M 0 0 
L -3.5 0 
" style="stroke: #000000; stroke-width: 0.8"/>
      </defs>
      <g>
       <use xlink:href="#m1e296d81fc" x="56.9" y="300.76" style="stroke: #000000; stroke-width: 0.8"/>
      </g>
     </g>
     <g id="text_8">
      <!-- 1.00 -->
      <g transform="translate(27.634375 304.559219) scale(0.1 -0.1)">
       <use xlink:href="#DejaVuSans-31"/>
       <use xlink:href="#DejaVuSans-2e" transform="translate(63.623047 0)"/>
       <use xlink:href="#DejaVuSans-30" transform="translate(95.410156 0)"/>
       <use xlink:href="#DejaVuSans-30" transform="translate(159.033203 0)"/>
      </g>
     </g>
    </g>
    <g id="ytick_2">
     <g id="line2d_15">
      <path d="M 56.9 266.705 
L 442.08 266.705 
" clip-path="url(#p1a2bcd01f3)" style="fill: none; stroke: #b0b0b0; stroke-width: 0.8; stroke-linecap: square"/>
     </g>
     <g id="line2d_16">
      <g>
       <use xlink:href="#m1e296d81fc" x="56.9" y="266.705" style="stroke: #000000; stroke-width: 0.8"/>
      </g>
     </g>
     <g id="text_9">
      <!-- 1.25 -->
      <g transform="translate(27.634375 270.504219) scale(0.1 -0.1)">
       <defs>
        <path id="DejaVuSans-35" d="M 691 4666 
L 3169 4666 
L 3169 4134 
L 1269 4134 
L 1269 2991 
Q 1406 3038 1543 3061 
Q 1681 3084 1819 3084 
Q 2600 3084 3056 2656 
Q 3513 2228 3513 1497 
Q 3513 744 3044 326 
Q 2575 -91 1722 -91 
Q 1428 -91 1123 -41 
Q 819 9 494 109 
L 494 744 
Q 775 591 1075 516 
Q 1375 441 1709 441 
Q 2250 441 2565 725 
Q 2881 1009 2881 1497 
Q 2881 1984 2565 2268 
Q 2250 2553 1709 2553 
Q 1456 2553 1204 2497 
Q 953 2441 691 2322 
L 691 4666 
z
" transform="scale(0.015625)"/>
       </defs>
       <use xlink:href="#DejaVuSans-31"/>
       <use xlink:href="#DejaVuSans-2e" transform="translate(63.623047 0)"/>
       <use xlink:href="#DejaVuSans-32" transform="translate(95.410156 0)"/>
       <use xlink:href="#DejaVuSans-35" transform="translate(159.033203 0)"/>
      </g>
     </g>
    </g>
    <g id="ytick_3">
     <g id="line2d_17">
      <path d="M 56.9 232.65 
L 442.08 232.65 
" clip-path="url(#p1a2bcd01f3)" style="fill: none; stroke: #b0b0b0; stroke-width: 0.8; stroke-linecap: square"/>
     </g>
     <g id="line2d_18">
      <g>
       <use xlink:href="#m1e296d81fc" x="56.9" y="232.65" style="stroke: #000000; stroke-width: 0.8"/>
      </g>
     </g>
     <g id="text_10">
      <!-- 1.50 -->
      <g transform="translate(27.634375 236.449219) scale(0.1 -0.1)">
       <use xlink:href="#DejaVuSans-31"/>
       <use xlink:href="#DejaVuSans-2e" transform="translate(63.623047 0)"/>
       <use xlink:href="#DejaVuSans-35" transform="translate(95.410156 0)"/>
       <use xlink:href="#DejaVuSans-30" transform="translate(159.033203 0)"/>
      </g>
     </g>
    </g>
    <g id="ytick_4">
     <g id="line2d_19">
      <path d="M 56.9 198.595 
L 442.08 198.595 
" clip-path="url(#p1a2bcd01f3)" style="fill: none; stroke: #b0b0b0; stroke-width: 0.8; stroke-linecap: square"/>
     </g>
     <g id="line2d_20">
      <g>
       <use xlink:href="#m1e296d81fc" x="56.9" y="198.595" style="stroke: #000000; stroke-width: 0.8"/>
      </g>
     </g>
     <g id="text_11">
      <!-- 1.75 -->
      <g transform="translate(27.634375 202.394219) scale(0.1 -0.1)">
       <defs>
        <path id="DejaVuSans-37" d="M 525 4666 
L 3525 4666 
L 3525 4397 
L 1831 0 
L 1172 0 
L 2766 4134 
L 525 4134 
L 525 4666 
z
" transform="scale(0.015625)"/>
       </defs>
       <use xlink:href="#DejaVuSans-31"/>
       <use xlink:href="#DejaVuSans-2e" transform="translate(63.623047 0)"/>
       <use xlink:href="#DejaVuSans-37" transform="translate(95.410156 0)"/>
       <use xlink:href="#DejaVuSans-35" transform="translate(159.033203 0)"/>
      </g>
     </g>
    </g>
    <g id="ytick_5">
     <g id="line2d_21">
      <path d="M 56.9 164.54 
L 442.08 164.54 
" clip-path="url(#p1a2bcd01f3)" style="fill: none; stroke: #b0b0b0; stroke-width: 0.8; stroke-linecap: square"/>
     </g>
     <g id="line2d_22">
      <g>
       <use xlink:href="#m1e296d81fc" x="56.9" y="164.54" style="stroke: #000000; stroke-width: 0.8"/>
      </g>
     </g>
     <g id="text_12">
      <!-- 2.00 -->
      <g transform="translate(27.634375 168.339219) scale(0.1 -0.1)">
       <use xlink:href="#DejaVuSans-32"/>
       <use xlink:href="#DejaVuSans-2e" transform="translate(63.623047 0)"/>
       <use xlink:href="#DejaVuSans-30" transform="translate(95.410156 0)"/>
       <use xlink:href="#DejaVuSans-30" transform="translate(159.033203 0)"/>
      </g>
     </g>
    </g>
    <g id="ytick_6">
     <g id="line2d_23">
      <path d="M 56.9 130.485 
L 442.08 130.485 
" clip-path="url(#p1a2bcd01f3)" style="fill: none; stroke: #b0b0b0; stroke-width: 0.8; stroke-linecap: square"/>
     </g>
     <g id="line2d_24">
      <g>
       <use xlink:href="#m1e296d81fc" x="56.9" y="130.485" style="stroke: #000000; stroke-width: 0.8"/>
      </g>
     </g>
     <g id="text_13">
      <!-- 2.25 -->
      <g transform="translate(27.634375 134.284219) scale(0.1 -0.1)">
       <use xlink:href="#DejaVuSans-32"/>
       <use xlink:href="#DejaVuSans-2e" transform="translate(63.623047 0)"/>
       <use xlink:href="#DejaVuSans-32" transform="translate(95.410156 0)"/>
       <use xlink:href="#DejaVuSans-35" transform="translate(159.033203 0)"/>
      </g>
     </g>
    </g>
    <g id="ytick_7">
     <g id="line2d_25">
      <path d="M 56.9 96.43 
L 442.08 96.43 
" clip-path="url(#p1a2bcd01f3)" style="fill: none; stroke: #b0b0b0; stroke-width: 0.8; stroke-linecap: square"/>
     </g>
     <g id="line2d_26">
      <g>
       <use xlink:href="#m1e296d81fc" x="56.9" y="96.43" style="stroke: #000000; stroke-width: 0.8"/>
      </g>
     </g>
     <g id="text_14">
      <!-- 2.50 -->
      <g transform="translate(27.634375 100.229219) scale(0.1 -0.1)">
       <use xlink:href="#DejaVuSans-32"/>
       <use xlink:href="#DejaVuSans-2e" transform="translate(63.623047 0)"/>
       <use xlink:href="#DejaVuSans-35" transform="translate(95.410156 0)"/>
       <use xlink:href="#DejaVuSans-30" transform="translate(159.033203 0)"/>
      </g>
     </g>
    </g>
    <g id="ytick_8">
     <g id="line2d_27">
      <path d="M 56.9 62.375 
L 442.08 62.375 
" clip-path="url(#p1a2bcd01f3)" style="fill: none; stroke: #b0b0b0; stroke-width: 0.8; stroke-linecap: square"/>
     </g>
     <g id="line2d_28">
      <g>
       <use xlink:href="#m1e296d81fc" x="56.9" y="62.375" style="stroke: #000000; stroke-width: 0.8"/>
      </g>
     </g>
     <g id="text_15">
      <!-- 2.75 -->
      <g transform="translate(27.634375 66.174219) scale(0.1 -0.1)">
       <use xlink:href="#DejaVuSans-32"/>
       <use xlink:href="#DejaVuSans-2e" transform="translate(63.623047 0)"/>
       <use xlink:href="#DejaVuSans-37" transform="translate(95.410156 0)"/>
       <use xlink:href="#DejaVuSans-35" transform="translate(159.033203 0)"/>
      </g>
     </g>
    </g>
    <g id="ytick_9">
     <g id="line2d_29">
      <path d="M 56.9 28.32 
L 442.08 28.32 
" clip-path="url(#p1a2bcd01f3)" style="fill: none; stroke: #b0b0b0; stroke-width: 0.8; stroke-linecap: square"/>
     </g>
     <g id="line2d_30">
      <g>
       <use xlink:href="#m1e296d81fc" x="56.9" y="28.32" style="stroke: #000000; stroke-width: 0.8"/>
      </g>
     </g>
     <g id="text_16">
      <!-- 3.00 -->
      <g transform="translate(27.634375 32.119219) scale(0.1 -0.1)">
       <defs>
        <path id="DejaVuSans-33" d="M 2597 2516 
Q 3050 2419 3304 2112 
Q 3559 1806 3559 1356 
Q 3559 666 3084 287 
Q 2609 -91 1734 -91 
Q 1441 -91 1130 -33 
Q 819 25 488 141 
L 488 750 
Q 750 597 1062 519 
Q 1375 441 1716 441 
Q 2309 441 2620 675 
Q 2931 909 2931 1356 
Q 2931 1769 2642 2001 
Q 2353 2234 1838 2234 
L 1294 2234 
L 1294 2753 
L 1863 2753 
Q 2328 2753 2575 2939 
Q 2822 3125 2822 3475 
Q 2822 3834 2567 4026 
Q 2313 4219 1838 4219 
Q 1578 4219 1281 4162 
Q 984 4106 628 3988 
L 628 4550 
Q 988 4650 1302 4700 
Q 1616 4750 1894 4750 
Q 2613 4750 3031 4423 
Q 3450 4097 3450 3541 
Q 3450 3153 3228 2886 
Q 3006 2619 2597 2516 
z
" transform="scale(0.015625)"/>
       </defs>
       <use xlink:href="#DejaVuSans-33"/>
       <use xlink:href="#DejaVuSans-2e" transform="translate(63.623047 0)"/>
       <use xlink:href="#DejaVuSans-30" transform="translate(95.410156 0)"/>
       <use xlink:href="#DejaVuSans-30" transform="translate(159.033203 0)"/>
      </g>
     </g>
    </g>
    <g id="text_17">
     <!-- $S(\beta)$ -->
     <g transform="translate(21.534375 174.84) rotate(-90) scale(0.1 -0.1)">
      <defs>
       <path id="DejaVuSans-Oblique-53" d="M 3859 4513 
L 3738 3897 
Q 3422 4066 3111 4152 
Q 2800 4238 2509 4238 
Q 1944 4238 1609 3991 
Q 1275 3744 1275 3334 
Q 1275 3109 1398 2989 
Q 1522 2869 2034 2731 
L 2413 2638 
Q 3053 2472 3303 2217 
Q 3553 1963 3553 1503 
Q 3553 797 2998 353 
Q 2444 -91 1538 -91 
Q 1166 -91 791 -17 
Q 416 56 38 206 
L 166 856 
Q 513 641 861 531 
Q 1209 422 1556 422 
Q 2147 422 2503 684 
Q 2859 947 2859 1369 
Q 2859 1650 2717 1795 
Q 2575 1941 2106 2059 
L 1728 2156 
Q 1081 2325 845 2545 
Q 609 2766 609 3163 
Q 609 3859 1145 4304 
Q 1681 4750 2541 4750 
Q 2875 4750 3203 4690 
Q 3531 4631 3859 4513 
z
" transform="scale(0.015625)"/>
      </defs>
      <use xlink:href="#DejaVuSans-Oblique-53" transform="translate(0 0.390625)"/>
      <use xlink:href="#DejaVuSans-28" transform="translate(63.476562 0.390625)"/>
      <use xlink:href="#DejaVuSans-Oblique-3b2" transform="translate(102.490234 0.390625)"/>
      <use xlink:href="#DejaVuSans-29" transform="translate(166.308594 0.390625)"/>
     </g>
    </g>
   </g>
   <g id="patch_3">
    <path d="M 56.9 300.76 
L 56.9 28.32 
" style="fill: none; stroke: #000000; stroke-width: 0.8; stroke-linejoin: miter; stroke-linecap: square"/>
   </g>
   <g id="patch_4">
    <path d="M 442.08 300.76 
L 442.08 28.32 
" style="fill: none; stroke: #000000; stroke-width: 0.8; stroke-linejoin: miter; stroke-linecap: square"/>
   </g>
   <g id="patch_5">
    <path d="M 56.9 300.76 
L 442.08 300.76 
" style="fill: none; stroke: #000000; stroke-width: 0.8; stroke-linejoin: miter; stroke-linecap: square"/>
   </g>
   <g id="patch_6">
    <path d="M 56.9 28.32 
L 442.08 28.32 
" style="fill: none; stroke: #000000; stroke-width: 0.8; stroke-linejoin: miter; stroke-linecap: square"/>
   </g>
   <g id="line2d_31">
    <path d="M 56.9 164.54 
L 442.08 164.54 
" clip-path="url(#p1a2bcd01f3)" style="fill: none; stroke-dasharray: 5.55,2.4; stroke-dashoffset: 0; stroke: #000000; stroke-width: 1.5"/>
   </g>
   <g id="line2d_32">
    <path d="M 56.9 51.691657 
L 442.08 51.691657 
" clip-path="url(#p1a2bcd01f3)" style="fill: none; stroke-dasharray: 1.5,2.475; stroke-dashoffset: 0; stroke: #000000; stroke-width: 1.5"/>
   </g>
   <g id="text_18">
    <!-- CHSH $S$ vs. Amplitude Imbalance Parameter $\beta$ -->
    <g transform="translate(111.55 22.32) scale(0.12 -0.12)">
     <defs>
      <path id="DejaVuSans-43" d="M 4122 4306 
L 4122 3641 
Q 3803 3938 3442 4084 
Q 3081 4231 2675 4231 
Q 1875 4231 1450 3742 
Q 1025 3253 1025 2328 
Q 1025 1406 1450 917 
Q 1875 428 2675 428 
Q 3081 428 3442 575 
Q 3803 722 4122 1019 
L 4122 359 
Q 3791 134 3420 21 
Q 3050 -91 2638 -91 
Q 1578 -91 968 557 
Q 359 1206 359 2328 
Q 359 3453 968 4101 
Q 1578 4750 2638 4750 
Q 3056 4750 3426 4639 
Q 3797 4528 4122 4306 
z
" transform="scale(0.015625)"/>
      <path id="DejaVuSans-48" d="M 628 4666 
L 1259 4666 
L 1259 2753 
L 3553 2753 
L 3553 4666 
L 4184 4666 
L 4184 0 
L 3553 0 
L 3553 2222 
L 1259 2222 
L 1259 0 
L 628 0 
L 628 4666 
z
" transform="scale(0.015625)"/>
      <path id="DejaVuSans-53" d="M 3425 4513 
L 3425 3897 
Q 3066 4069 2747 4153 
Q 2428 4238 2131 4238 
Q 1616 4238 1336 4038 
Q 1056 3838 1056 3469 
Q 1056 3159 1242 3001 
Q 1428 2844 1947 2747 
L 2328 2669 
Q 3034 2534 3370 2195 
Q 3706 1856 3706 1288 
Q 3706 609 3251 259 
Q 2797 -91 1919 -91 
Q 1588 -91 1214 -16 
Q 841 59 441 206 
L 441 856 
Q 825 641 1194 531 
Q 1563 422 1919 422 
Q 2459 422 2753 634 
Q 3047 847 3047 1241 
Q 3047 1584 2836 1778 
Q 2625 1972 2144 2069 
L 1759 2144 
Q 1053 2284 737 2584 
Q 422 2884 422 3419 
Q 422 4038 858 4394 
Q 1294 4750 2059 4750 
Q 2388 4750 2728 4690 
Q 3069 4631 3425 4513 
z
" transform="scale(0.015625)"/>
      <path id="DejaVuSans-76" d="M 191 3500 
L 800 3500 
L 1894 563 
L 2988 3500 
L 3597 3500 
L 2284 0 
L 1503 0 
L 191 3500 
z
" transform="scale(0.015625)"/>
      <path id="DejaVuSans-73" d="M 2834 3397 
L 2834 2853 
Q 2591 2978 2328 3040 
Q 2066 3103 1784 3103 
Q 1356 3103 1142 2972 
Q 928 2841 928 2578 
Q 928 2378 1081 2264 
Q 1234 2150 1697 2047 
L 1894 2003 
Q 2506 1872 2764 1633 
Q 3022 1394 3022 966 
Q 3022 478 2636 193 
Q 2250 -91 1575 -91 
Q 1294 -91 989 -36 
Q 684 19 347 128 
L 347 722 
Q 666 556 975 473 
Q 1284 391 1588 391 
Q 1994 391 2212 530 
Q 2431 669 2431 922 
Q 2431 1156 2273 1281 
Q 2116 1406 1581 1522 
L 1381 1569 
Q 847 1681 609 1914 
Q 372 2147 372 2553 
Q 372 3047 722 3315 
Q 1072 3584 1716 3584 
Q 2034 3584 2315 3537 
Q 2597 3491 2834 3397 
z
" transform="scale(0.015625)"/>
      <path id="DejaVuSans-41" d="M 2188 4044 
L 1331 1722 
L 3047 1722 
L 2188 4044 
z
M 1831 4666 
L 2547 4666 
L 4325 0 
L 3669 0 
L 3244 1197 
L 1141 1197 
L 716 0 
L 50 0 
L 1831 4666 
z
" transform="scale(0.015625)"/>
      <path id="DejaVuSans-49" d="M 628 4666 
L 1259 4666 
L 1259 0 
L 628 0 
L 628 4666 
z
" transform="scale(0.015625)"/>
      <path id="DejaVuSans-50" d="M 1259 4147 
L 1259 2394 
L 2053 2394 
Q 2494 2394 2734 2622 
Q 2975 2850 2975 3272 
Q 2975 3691 2734 3919 
Q 2494 4147 2053 4147 
L 1259 4147 
z
M 628 4666 
L 2053 4666 
Q 2838 4666 3239 4311 
Q 3641 3956 3641 3272 
Q 3641 2581 3239 2228 
Q 2838 1875 2053 1875 
L 1259 1875 
L 1259 0 
L 628 0 
L 628 4666 
z
" transform="scale(0.015625)"/>
     </defs>
     <use xlink:href="#DejaVuSans-43" transform="translate(0 0.390625)"/>
     <use xlink:href="#DejaVuSans-48" transform="translate(69.824219 0.390625)"/>
     <use xlink:href="#DejaVuSans-53" transform="translate(145.019531 0.390625)"/>
     <use xlink:href="#DejaVuSans-48" transform="translate(208.496094 0.390625)"/>
     <use xlink:href="#DejaVuSans-20" transform="translate(283.691406 0.390625)"/>
     <use xlink:href="#DejaVuSans-Oblique-53" transform="translate(315.478516 0.390625)"/>
     <use xlink:href="#DejaVuSans-20" transform="translate(378.955078 0.390625)"/>
     <use xlink:href="#DejaVuSans-76" transform="translate(410.742188 0.390625)"/>
     <use xlink:href="#DejaVuSans-73" transform="translate(469.921875 0.390625)"/>
     <use xlink:href="#DejaVuSans-2e" transform="translate(522.021484 0.390625)"/>
     <use xlink:href="#DejaVuSans-20" transform="translate(553.808594 0.390625)"/>
     <use xlink:href="#DejaVuSans-41" transform="translate(585.595703 0.390625)"/>
     <use xlink:href="#DejaVuSans-6d" transform="translate(654.003906 0.390625)"/>
     <use xlink:href="#DejaVuSans-70" transform="translate(751.416016 0.390625)"/>
     <use xlink:href="#DejaVuSans-6c" transform="translate(814.892578 0.390625)"/>
     <use xlink:href="#DejaVuSans-69" transform="translate(842.675781 0.390625)"/>
     <use xlink:href="#DejaVuSans-74" transform="translate(870.458984 0.390625)"/>
     <use xlink:href="#DejaVuSans-75" transform="translate(909.667969 0.390625)"/>
     <use xlink:href="#DejaVuSans-64" transform="translate(973.046875 0.390625)"/>
     <use xlink:href="#DejaVuSans-65" transform="translate(1036.523438 0.390625)"/>
     <use xlink:href="#DejaVuSans-20" transform="translate(1098.046875 0.390625)"/>
     <use xlink:href="#DejaVuSans-49" transform="translate(1129.833984 0.390625)"/>
     <use xlink:href="#DejaVuSans-6d" transform="translate(1155.701172 0.390625)"/>
     <use xlink:href="#DejaVuSans-62" transform="translate(1253.113281 0.390625)"/>
     <use xlink:href="#DejaVuSans-61" transform="translate(1316.589844 0.390625)"/>
     <use xlink:href="#DejaVuSans-6c" transform="translate(1377.869141 0.390625)"/>
     <use xlink:href="#DejaVuSans-61" transform="translate(1405.652344 0.390625)"/>
     <use xlink:href="#DejaVuSans-6e" transform="translate(1466.931641 0.390625)"/>
     <use xlink:href="#DejaVuSans-63" transform="translate(1530.310547 0.390625)"/>
     <use xlink:href="#DejaVuSans-65" transform="translate(1585.291016 0.390625)"/>
     <use xlink:href="#DejaVuSans-20" transform="translate(1646.814453 0.390625)"/>
     <use xlink:href="#DejaVuSans-50" transform="translate(1678.601562 0.390625)"/>
     <use xlink:href="#DejaVuSans-61" transform="translate(1738.904297 0.390625)"/>
     <use xlink:href="#DejaVuSans-72" transform="translate(1800.183594 0.390625)"/>
     <use xlink:href="#DejaVuSans-61" transform="translate(1841.296875 0.390625)"/>
     <use xlink:href="#DejaVuSans-6d" transform="translate(1902.576172 0.390625)"/>
     <use xlink:href="#DejaVuSans-65" transform="translate(1999.988281 0.390625)"/>
     <use xlink:href="#DejaVuSans-74" transform="translate(2061.511719 0.390625)"/>
     <use xlink:href="#DejaVuSans-65" transform="translate(2100.720703 0.390625)"/>
     <use xlink:href="#DejaVuSans-72" transform="translate(2162.244141 0.390625)"/>
     <use xlink:href="#DejaVuSans-20" transform="translate(2203.357422 0.390625)"/>
     <use xlink:href="#DejaVuSans-Oblique-3b2" transform="translate(2235.144531 0.390625)"/>
    </g>
   </g>
   <g id="line2d_33">
    <path d="M 56.9 244.335829 
L 58.8259 217.160024 
L 60.7518 206.000122 
L 62.6777 197.503083 
L 64.6036 190.395461 
L 66.5295 184.182705 
L 68.4554 178.610561 
L 70.3813 173.52763 
L 72.3072 168.835041 
L 76.159 160.364181 
L 80.0108 152.834917 
L 83.8626 146.030657 
L 87.7144 139.809721 
L 91.5662 134.073332 
L 95.418 128.749326 
L 99.2698 123.783053 
L 103.1216 119.131937 
L 106.9734 114.762036 
L 110.8252 110.64577 
L 114.677 106.760372 
L 120.4547 101.32429 
L 126.2324 96.312881 
L 132.0101 91.684315 
L 137.7878 87.404713 
L 143.5655 83.446226 
L 149.3432 79.785677 
L 155.1209 76.403583 
L 160.8986 73.283425 
L 166.6763 70.411106 
L 172.454 67.774529 
L 178.2317 65.363276 
L 184.0094 63.16835 
L 189.7871 61.181972 
L 195.5648 59.397424 
L 201.3425 57.808912 
L 207.1202 56.411464 
L 212.8979 55.200846 
L 218.6756 54.173489 
L 224.4533 53.326437 
L 230.231 52.657298 
L 236.0087 52.164215 
L 241.7864 51.845834 
L 247.5641 51.70129 
L 253.3418 51.73019 
L 259.1195 51.932613 
L 264.8972 52.309108 
L 270.6749 52.860701 
L 276.4526 53.588913 
L 282.2303 54.495774 
L 288.008 55.58386 
L 293.7857 56.856326 
L 299.5634 58.316957 
L 305.3411 59.970223 
L 311.1188 61.821361 
L 316.8965 63.876459 
L 322.6742 66.142573 
L 328.4519 68.627869 
L 334.2296 71.341792 
L 340.0073 74.295288 
L 345.785 77.501082 
L 351.5627 80.974025 
L 357.3404 84.731557 
L 363.1181 88.794299 
L 368.8958 93.186863 
L 374.6735 97.938933 
L 380.4512 103.086789 
L 384.303 106.760372 
L 388.1548 110.64577 
L 392.0066 114.762036 
L 395.8584 119.131937 
L 399.7102 123.783053 
L 403.562 128.749326 
L 407.4138 134.073332 
L 411.2656 139.809721 
L 415.1174 146.030657 
L 418.9692 152.834917 
L 422.821 160.364181 
L 424.7469 164.463966 
L 426.6728 168.835041 
L 428.5987 173.52763 
L 430.5246 178.610561 
L 432.4505 184.182705 
L 434.3764 190.395461 
L 436.3023 197.503083 
L 438.2282 206.000122 
L 440.1541 217.160024 
L 442.08 244.335829 
L 442.08 244.335829 
" clip-path="url(#p1a2bcd01f3)" style="fill: none; stroke: #1f77b4; stroke-width: 2; stroke-linecap: square"/>
   </g>
   <g id="line2d_34">
    <path d="M 56.9 105.9654 
L 442.08 105.9654 
" clip-path="url(#p1a2bcd01f3)" style="fill: none; stroke-dasharray: 9.6,2.4,1.5,2.4; stroke-dashoffset: 0; stroke: #ff0000; stroke-width: 1.5"/>
   </g>
   <g id="line2d_35">
    <path d="M 56.9 82.808 
L 442.08 82.808 
" clip-path="url(#p1a2bcd01f3)" style="fill: none; stroke-dasharray: 9.6,2.4,1.5,2.4; stroke-dashoffset: 0; stroke: #9467bd; stroke-width: 1.5"/>
   </g>
   <g id="line2d_36">
    <path d="M 56.9 244.335829 
L 442.08 244.335829 
" clip-path="url(#p1a2bcd01f3)" style="fill: none; stroke-dasharray: 9.6,2.4,1.5,2.4; stroke-dashoffset: 0; stroke: #008000; stroke-width: 1.5"/>
   </g>
   <g id="legend_1">
    <g id="patch_7">
     <path d="M 161.49 295.76 
L 337.49 295.76 
Q 339.49 295.76 339.49 293.76 
L 339.49 172.649062 
Q 339.49 170.649062 337.49 170.649062 
L 161.49 170.649062 
Q 159.49 170.649062 159.49 172.649062 
L 159.49 293.76 
Q 159.49 295.76 161.49 295.76 
z
" style="fill: #ffffff; opacity: 0.8; stroke: #cccccc; stroke-linejoin: miter"/>
    </g>
    <g id="line2d_37">
     <path d="M 163.49 178.849062 
L 173.49 178.849062 
L 183.49 178.849062 
" style="fill: none; stroke: #1f77b4; stroke-width: 2; stroke-linecap: square"/>
    </g>
    <g id="text_19">
     <!-- $S(\beta)$ -->
     <g transform="translate(191.49 182.349062) scale(0.1 -0.1)">
      <use xlink:href="#DejaVuSans-Oblique-53" transform="translate(0 0.390625)"/>
      <use xlink:href="#DejaVuSans-28" transform="translate(63.476562 0.390625)"/>
      <use xlink:href="#DejaVuSans-Oblique-3b2" transform="translate(102.490234 0.390625)"/>
      <use xlink:href="#DejaVuSans-29" transform="translate(166.308594 0.390625)"/>
     </g>
    </g>
    <g id="line2d_38">
     <path d="M 163.49 193.5475 
L 173.49 193.5475 
L 183.49 193.5475 
" style="fill: none; stroke-dasharray: 5.55,2.4; stroke-dashoffset: 0; stroke: #000000; stroke-width: 1.5"/>
    </g>
    <g id="text_20">
     <!-- Classical bound $S=2$ -->
     <g transform="translate(191.49 197.0475) scale(0.1 -0.1)">
      <defs>
       <path id="DejaVuSans-6f" d="M 1959 3097 
Q 1497 3097 1228 2736 
Q 959 2375 959 1747 
Q 959 1119 1226 758 
Q 1494 397 1959 397 
Q 2419 397 2687 759 
Q 2956 1122 2956 1747 
Q 2956 2369 2687 2733 
Q 2419 3097 1959 3097 
z
M 1959 3584 
Q 2709 3584 3137 3096 
Q 3566 2609 3566 1747 
Q 3566 888 3137 398 
Q 2709 -91 1959 -91 
Q 1206 -91 779 398 
Q 353 888 353 1747 
Q 353 2609 779 3096 
Q 1206 3584 1959 3584 
z
" transform="scale(0.015625)"/>
       <path id="DejaVuSans-3d" d="M 678 2906 
L 4684 2906 
L 4684 2381 
L 678 2381 
L 678 2906 
z
M 678 1631 
L 4684 1631 
L 4684 1100 
L 678 1100 
L 678 1631 
z
" transform="scale(0.015625)"/>
      </defs>
      <use xlink:href="#DejaVuSans-43" transform="translate(0 0.015625)"/>
      <use xlink:href="#DejaVuSans-6c" transform="translate(69.824219 0.015625)"/>
      <use xlink:href="#DejaVuSans-61" transform="translate(97.607422 0.015625)"/>
      <use xlink:href="#DejaVuSans-73" transform="translate(158.886719 0.015625)"/>
      <use xlink:href="#DejaVuSans-73" transform="translate(210.986328 0.015625)"/>
      <use xlink:href="#DejaVuSans-69" transform="translate(263.085938 0.015625)"/>
      <use xlink:href="#DejaVuSans-63" transform="translate(290.869141 0.015625)"/>
      <use xlink:href="#DejaVuSans-61" transform="translate(345.849609 0.015625)"/>
      <use xlink:href="#DejaVuSans-6c" transform="translate(407.128906 0.015625)"/>
      <use xlink:href="#DejaVuSans-20" transform="translate(434.912109 0.015625)"/>
      <use xlink:href="#DejaVuSans-62" transform="translate(466.699219 0.015625)"/>
      <use xlink:href="#DejaVuSans-6f" transform="translate(530.175781 0.015625)"/>
      <use xlink:href="#DejaVuSans-75" transform="translate(591.357422 0.015625)"/>
      <use xlink:href="#DejaVuSans-6e" transform="translate(654.736328 0.015625)"/>
      <use xlink:href="#DejaVuSans-64" transform="translate(718.115234 0.015625)"/>
      <use xlink:href="#DejaVuSans-20" transform="translate(781.591797 0.015625)"/>
      <use xlink:href="#DejaVuSans-Oblique-53" transform="translate(813.378906 0.015625)"/>
      <use xlink:href="#DejaVuSans-3d" transform="translate(896.337891 0.015625)"/>
      <use xlink:href="#DejaVuSans-32" transform="translate(999.609375 0.015625)"/>
     </g>
    </g>
    <g id="line2d_39">
     <path d="M 163.49 211.0475 
L 173.49 211.0475 
L 183.49 211.0475 
" style="fill: none; stroke-dasharray: 1.5,2.475; stroke-dashoffset: 0; stroke: #000000; stroke-width: 1.5"/>
    </g>
    <g id="text_21">
     <!-- Quantum max $2\sqrt{2}$ -->
     <g transform="translate(191.49 214.5475) scale(0.1 -0.1)">
      <defs>
       <path id="DejaVuSans-51" d="M 2522 4238 
Q 1834 4238 1429 3725 
Q 1025 3213 1025 2328 
Q 1025 1447 1429 934 
Q 1834 422 2522 422 
Q 3209 422 3611 934 
Q 4013 1447 4013 2328 
Q 4013 3213 3611 3725 
Q 3209 4238 2522 4238 
z
M 3406 84 
L 4238 -825 
L 3475 -825 
L 2784 -78 
Q 2681 -84 2626 -87 
Q 2572 -91 2522 -91 
Q 1538 -91 948 567 
Q 359 1225 359 2328 
Q 359 3434 948 4092 
Q 1538 4750 2522 4750 
Q 3503 4750 4090 4092 
Q 4678 3434 4678 2328 
Q 4678 1516 4351 937 
Q 4025 359 3406 84 
z
" transform="scale(0.015625)"/>
       <path id="DejaVuSans-78" d="M 3513 3500 
L 2247 1797 
L 3578 0 
L 2900 0 
L 1881 1375 
L 863 0 
L 184 0 
L 1544 1831 
L 300 3500 
L 978 3500 
L 1906 2253 
L 2834 3500 
L 3513 3500 
z
" transform="scale(0.015625)"/>
       <path id="STIXSizeOneSym-Regular-221a" d="M 6970 9933 
L 3373 -1888 
L 3104 -1888 
L 1626 2918 
Q 1555 3149 1465 3251 
Q 1376 3354 1229 3354 
Q 1011 3354 794 3181 
L 717 3309 
L 1766 4115 
L 1926 4115 
L 3379 -602 
L 3405 -602 
L 6605 9933 
L 6970 9933 
z
" transform="scale(0.015625)"/>
      </defs>
      <use xlink:href="#DejaVuSans-51" transform="translate(0 0.71875)"/>
      <use xlink:href="#DejaVuSans-75" transform="translate(78.710938 0.71875)"/>
      <use xlink:href="#DejaVuSans-61" transform="translate(142.089844 0.71875)"/>
      <use xlink:href="#DejaVuSans-6e" transform="translate(203.369141 0.71875)"/>
      <use xlink:href="#DejaVuSans-74" transform="translate(266.748047 0.71875)"/>
      <use xlink:href="#DejaVuSans-75" transform="translate(305.957031 0.71875)"/>
      <use xlink:href="#DejaVuSans-6d" transform="translate(369.335938 0.71875)"/>
      <use xlink:href="#DejaVuSans-20" transform="translate(466.748047 0.71875)"/>
      <use xlink:href="#DejaVuSans-6d" transform="translate(498.535156 0.71875)"/>
      <use xlink:href="#DejaVuSans-61" transform="translate(595.947266 0.71875)"/>
      <use xlink:href="#DejaVuSans-78" transform="translate(657.226562 0.71875)"/>
      <use xlink:href="#DejaVuSans-20" transform="translate(716.40625 0.71875)"/>
      <use xlink:href="#DejaVuSans-32" transform="translate(748.193359 0.71875)"/>
      <use xlink:href="#STIXSizeOneSym-Regular-221a" transform="translate(811.816406 17.53125) scale(0.571018)"/>
      <use xlink:href="#DejaVuSans-32" transform="translate(884.697525 0.53125)"/>
      <path d="M 872.197525 99.5 
L 872.197525 105.75 
L 960.820572 105.75 
L 960.820572 99.5 
L 872.197525 99.5 
z
"/>
     </g>
    </g>
    <g id="patch_8">
     <path d="M 163.49 229.225625 
L 183.49 229.225625 
L 183.49 222.225625 
L 163.49 222.225625 
z
" style="fill: #ff0000; fill-opacity: 0.2; stroke: #ff0000; stroke-opacity: 0.2; stroke-linejoin: miter"/>
    </g>
    <g id="text_22">
     <!-- quED ±0.12 -->
     <g transform="translate(191.49 229.225625) scale(0.1 -0.1)">
      <defs>
       <path id="DejaVuSans-71" d="M 947 1747 
Q 947 1113 1208 752 
Q 1469 391 1925 391 
Q 2381 391 2643 752 
Q 2906 1113 2906 1747 
Q 2906 2381 2643 2742 
Q 2381 3103 1925 3103 
Q 1469 3103 1208 2742 
Q 947 2381 947 1747 
z
M 2906 525 
Q 2725 213 2448 61 
Q 2172 -91 1784 -91 
Q 1150 -91 751 415 
Q 353 922 353 1747 
Q 353 2572 751 3078 
Q 1150 3584 1784 3584 
Q 2172 3584 2448 3432 
Q 2725 3281 2906 2969 
L 2906 3500 
L 3481 3500 
L 3481 -1331 
L 2906 -1331 
L 2906 525 
z
" transform="scale(0.015625)"/>
       <path id="DejaVuSans-45" d="M 628 4666 
L 3578 4666 
L 3578 4134 
L 1259 4134 
L 1259 2753 
L 3481 2753 
L 3481 2222 
L 1259 2222 
L 1259 531 
L 3634 531 
L 3634 0 
L 628 0 
L 628 4666 
z
" transform="scale(0.015625)"/>
       <path id="DejaVuSans-44" d="M 1259 4147 
L 1259 519 
L 2022 519 
Q 2988 519 3436 956 
Q 3884 1394 3884 2338 
Q 3884 3275 3436 3711 
Q 2988 4147 2022 4147 
L 1259 4147 
z
M 628 4666 
L 1925 4666 
Q 3281 4666 3915 4102 
Q 4550 3538 4550 2338 
Q 4550 1131 3912 565 
Q 3275 0 1925 0 
L 628 0 
L 628 4666 
z
" transform="scale(0.015625)"/>
       <path id="DejaVuSans-b1" d="M 2944 4013 
L 2944 2803 
L 4684 2803 
L 4684 2272 
L 2944 2272 
L 2944 1063 
L 2419 1063 
L 2419 2272 
L 678 2272 
L 678 2803 
L 2419 2803 
L 2419 4013 
L 2944 4013 
z
M 678 531 
L 4684 531 
L 4684 0 
L 678 0 
L 678 531 
z
" transform="scale(0.015625)"/>
      </defs>
      <use xlink:href="#DejaVuSans-71"/>
      <use xlink:href="#DejaVuSans-75" transform="translate(63.476562 0)"/>
      <use xlink:href="#DejaVuSans-45" transform="translate(126.855469 0)"/>
      <use xlink:href="#DejaVuSans-44" transform="translate(190.039062 0)"/>
      <use xlink:href="#DejaVuSans-20" transform="translate(267.041016 0)"/>
      <use xlink:href="#DejaVuSans-b1" transform="translate(298.828125 0)"/>
      <use xlink:href="#DejaVuSans-30" transform="translate(382.617188 0)"/>
      <use xlink:href="#DejaVuSans-2e" transform="translate(446.240234 0)"/>
      <use xlink:href="#DejaVuSans-31" transform="translate(478.027344 0)"/>
      <use xlink:href="#DejaVuSans-32" transform="translate(541.650391 0)"/>
     </g>
    </g>
    <g id="line2d_40">
     <path d="M 163.49 240.40375 
L 173.49 240.40375 
L 183.49 240.40375 
" style="fill: none; stroke-dasharray: 9.6,2.4,1.5,2.4; stroke-dashoffset: 0; stroke: #ff0000; stroke-width: 1.5"/>
    </g>
    <g id="text_23">
     <!-- quED measurement $S=2.43$ -->
     <g transform="translate(191.49 243.90375) scale(0.1 -0.1)">
      <use xlink:href="#DejaVuSans-71" transform="translate(0 0.78125)"/>
      <use xlink:href="#DejaVuSans-75" transform="translate(63.476562 0.78125)"/>
      <use xlink:href="#DejaVuSans-45" transform="translate(126.855469 0.78125)"/>
      <use xlink:href="#DejaVuSans-44" transform="translate(190.039062 0.78125)"/>
      <use xlink:href="#DejaVuSans-20" transform="translate(267.041016 0.78125)"/>
      <use xlink:href="#DejaVuSans-6d" transform="translate(298.828125 0.78125)"/>
      <use xlink:href="#DejaVuSans-65" transform="translate(396.240234 0.78125)"/>
      <use xlink:href="#DejaVuSans-61" transform="translate(457.763672 0.78125)"/>
      <use xlink:href="#DejaVuSans-73" transform="translate(519.042969 0.78125)"/>
      <use xlink:href="#DejaVuSans-75" transform="translate(571.142578 0.78125)"/>
      <use xlink:href="#DejaVuSans-72" transform="translate(634.521484 0.78125)"/>
      <use xlink:href="#DejaVuSans-65" transform="translate(675.634766 0.78125)"/>
      <use xlink:href="#DejaVuSans-6d" transform="translate(737.158203 0.78125)"/>
      <use xlink:href="#DejaVuSans-65" transform="translate(834.570312 0.78125)"/>
      <use xlink:href="#DejaVuSans-6e" transform="translate(896.09375 0.78125)"/>
      <use xlink:href="#DejaVuSans-74" transform="translate(959.472656 0.78125)"/>
      <use xlink:href="#DejaVuSans-20" transform="translate(998.681641 0.78125)"/>
      <use xlink:href="#DejaVuSans-Oblique-53" transform="translate(1030.46875 0.78125)"/>
      <use xlink:href="#DejaVuSans-3d" transform="translate(1113.427734 0.78125)"/>
      <use xlink:href="#DejaVuSans-32" transform="translate(1216.699219 0.78125)"/>
      <use xlink:href="#DejaVuSans-2e" transform="translate(1280.322266 0.78125)"/>
      <use xlink:href="#DejaVuSans-34" transform="translate(1312.109375 0.78125)"/>
      <use xlink:href="#DejaVuSans-33" transform="translate(1375.732422 0.78125)"/>
     </g>
    </g>
    <g id="patch_9">
     <path d="M 163.49 258.602188 
L 183.49 258.602188 
L 183.49 251.602188 
L 163.49 251.602188 
z
" style="fill: #9467bd; fill-opacity: 0.15; stroke: #9467bd; stroke-opacity: 0.15; stroke-linejoin: miter"/>
    </g>
    <g id="text_24">
     <!-- IBM ±0.003 -->
     <g transform="translate(191.49 258.602188) scale(0.1 -0.1)">
      <defs>
       <path id="DejaVuSans-42" d="M 1259 2228 
L 1259 519 
L 2272 519 
Q 2781 519 3026 730 
Q 3272 941 3272 1375 
Q 3272 1813 3026 2020 
Q 2781 2228 2272 2228 
L 1259 2228 
z
M 1259 4147 
L 1259 2741 
L 2194 2741 
Q 2656 2741 2882 2914 
Q 3109 3088 3109 3444 
Q 3109 3797 2882 3972 
Q 2656 4147 2194 4147 
L 1259 4147 
z
M 628 4666 
L 2241 4666 
Q 2963 4666 3353 4366 
Q 3744 4066 3744 3513 
Q 3744 3084 3544 2831 
Q 3344 2578 2956 2516 
Q 3422 2416 3680 2098 
Q 3938 1781 3938 1306 
Q 3938 681 3513 340 
Q 3088 0 2303 0 
L 628 0 
L 628 4666 
z
" transform="scale(0.015625)"/>
       <path id="DejaVuSans-4d" d="M 628 4666 
L 1569 4666 
L 2759 1491 
L 3956 4666 
L 4897 4666 
L 4897 0 
L 4281 0 
L 4281 4097 
L 3078 897 
L 2444 897 
L 1241 4097 
L 1241 0 
L 628 0 
L 628 4666 
z
" transform="scale(0.015625)"/>
      </defs>
      <use xlink:href="#DejaVuSans-49"/>
      <use xlink:href="#DejaVuSans-42" transform="translate(29.492188 0)"/>
      <use xlink:href="#DejaVuSans-4d" transform="translate(98.095703 0)"/>
      <use xlink:href="#DejaVuSans-20" transform="translate(184.375 0)"/>
      <use xlink:href="#DejaVuSans-b1" transform="translate(216.162109 0)"/>
      <use xlink:href="#DejaVuSans-30" transform="translate(299.951172 0)"/>
      <use xlink:href="#DejaVuSans-2e" transform="translate(363.574219 0)"/>
      <use xlink:href="#DejaVuSans-30" transform="translate(395.361328 0)"/>
      <use xlink:href="#DejaVuSans-30" transform="translate(458.984375 0)"/>
      <use xlink:href="#DejaVuSans-33" transform="translate(522.607422 0)"/>
     </g>
    </g>
    <g id="line2d_41">
     <path d="M 163.49 269.780312 
L 173.49 269.780312 
L 183.49 269.780312 
" style="fill: none; stroke-dasharray: 9.6,2.4,1.5,2.4; stroke-dashoffset: 0; stroke: #9467bd; stroke-width: 1.5"/>
    </g>
    <g id="text_25">
     <!-- IBM measurement $S=2.6$ -->
     <g transform="translate(191.49 273.280312) scale(0.1 -0.1)">
      <use xlink:href="#DejaVuSans-49" transform="translate(0 0.78125)"/>
      <use xlink:href="#DejaVuSans-42" transform="translate(29.492188 0.78125)"/>
      <use xlink:href="#DejaVuSans-4d" transform="translate(98.095703 0.78125)"/>
      <use xlink:href="#DejaVuSans-20" transform="translate(184.375 0.78125)"/>
      <use xlink:href="#DejaVuSans-6d" transform="translate(216.162109 0.78125)"/>
      <use xlink:href="#DejaVuSans-65" transform="translate(313.574219 0.78125)"/>
      <use xlink:href="#DejaVuSans-61" transform="translate(375.097656 0.78125)"/>
      <use xlink:href="#DejaVuSans-73" transform="translate(436.376953 0.78125)"/>
      <use xlink:href="#DejaVuSans-75" transform="translate(488.476562 0.78125)"/>
      <use xlink:href="#DejaVuSans-72" transform="translate(551.855469 0.78125)"/>
      <use xlink:href="#DejaVuSans-65" transform="translate(592.96875 0.78125)"/>
      <use xlink:href="#DejaVuSans-6d" transform="translate(654.492188 0.78125)"/>
      <use xlink:href="#DejaVuSans-65" transform="translate(751.904297 0.78125)"/>
      <use xlink:href="#DejaVuSans-6e" transform="translate(813.427734 0.78125)"/>
      <use xlink:href="#DejaVuSans-74" transform="translate(876.806641 0.78125)"/>
      <use xlink:href="#DejaVuSans-20" transform="translate(916.015625 0.78125)"/>
      <use xlink:href="#DejaVuSans-Oblique-53" transform="translate(947.802734 0.78125)"/>
      <use xlink:href="#DejaVuSans-3d" transform="translate(1030.761719 0.78125)"/>
      <use xlink:href="#DejaVuSans-32" transform="translate(1134.033203 0.78125)"/>
      <use xlink:href="#DejaVuSans-2e" transform="translate(1197.65625 0.78125)"/>
      <use xlink:href="#DejaVuSans-36" transform="translate(1229.443359 0.78125)"/>
     </g>
    </g>
    <g id="line2d_42">
     <path d="M 163.49 286.180312 
L 173.49 286.180312 
L 183.49 286.180312 
" style="fill: none; stroke-dasharray: 9.6,2.4,1.5,2.4; stroke-dashoffset: 0; stroke: #008000; stroke-width: 1.5"/>
    </g>
    <g id="text_26">
     <!-- S min value $\sqrt{2}$ -->
     <g transform="translate(191.49 289.680312) scale(0.1 -0.1)">
      <use xlink:href="#DejaVuSans-53" transform="translate(0 0.71875)"/>
      <use xlink:href="#DejaVuSans-20" transform="translate(63.476562 0.71875)"/>
      <use xlink:href="#DejaVuSans-6d" transform="translate(95.263672 0.71875)"/>
      <use xlink:href="#DejaVuSans-69" transform="translate(192.675781 0.71875)"/>
      <use xlink:href="#DejaVuSans-6e" transform="translate(220.458984 0.71875)"/>
      <use xlink:href="#DejaVuSans-20" transform="translate(283.837891 0.71875)"/>
      <use xlink:href="#DejaVuSans-76" transform="translate(315.625 0.71875)"/>
      <use xlink:href="#DejaVuSans-61" transform="translate(374.804688 0.71875)"/>
      <use xlink:href="#DejaVuSans-6c" transform="translate(436.083984 0.71875)"/>
      <use xlink:href="#DejaVuSans-75" transform="translate(463.867188 0.71875)"/>
      <use xlink:href="#DejaVuSans-65" transform="translate(527.246094 0.71875)"/>
      <use xlink:href="#DejaVuSans-20" transform="translate(588.769531 0.71875)"/>
      <use xlink:href="#STIXSizeOneSym-Regular-221a" transform="translate(620.556641 17.53125) scale(0.571018)"/>
      <use xlink:href="#DejaVuSans-32" transform="translate(693.437759 0.53125)"/>
      <path d="M 680.937759 99.5 
L 680.937759 105.75 
L 769.560806 105.75 
L 769.560806 99.5 
L 680.937759 99.5 
z
"/>
     </g>
    </g>
   </g>
  </g>
 </g>
 <defs>
  <clipPath id="p1a2bcd01f3">
   <rect x="56.9" y="28.32" width="385.18" height="272.44"/>
  </clipPath>
 </defs>
</svg>
