<svg width="1280" height="720" xmlns="http://www.w3.org/2000/svg" xmlns:xlink="http://www.w3.org/1999/xlink" overflow="hidden"><g><rect x="0" y="0" width="1280" height="720" fill="#FFFFFF"/><path d="M170 207 1226 207" stroke="#000000" stroke-width="8" stroke-miterlimit="8" fill="none" fill-rule="evenodd"/><path d="M170 390 1226 390" stroke="#000000" stroke-width="8" stroke-miterlimit="8" fill="none" fill-rule="evenodd"/><path d="M45.3185 196.997C42.9279 196.997 40.7834 197.964 38.8849 199.897 36.9865 201.831 35.4924 204.438 34.4025 207.72 33.3127 211.001 32.7678 214.271 32.7678 217.528 32.7678 219.966 33.1017 221.788 33.7697 222.995 34.4377 224.202 35.5568 224.806 37.1271 224.806 37.8537 224.806 38.592 224.647 39.342 224.331 40.092 224.015 40.8713 223.505 41.6799 222.802 42.4885 222.099 43.2853 221.243 44.0705 220.235 44.8557 219.228 45.5764 218.214 46.2326 217.194 46.8889 216.175 47.4982 214.968 48.0607 213.573 48.6232 212.179 49.1037 210.497 49.5021 208.528L49.8185 207.017C50.1701 205.329 50.3459 203.735 50.3459 202.235 50.3459 200.407 49.9592 199.077 49.1857 198.245 48.4123 197.413 47.1232 196.997 45.3185 196.997ZM44.6857 194.22C46.1389 194.22 47.5217 194.39 48.8342 194.73 50.1467 195.069 51.506 195.673 52.9123 196.54L56.1467 194.22 58.3967 194.782 49.3967 234.755C48.9982 236.536 48.799 237.872 48.799 238.763 48.799 239.794 49.0627 240.526 49.59 240.96 50.1174 241.394 51.1545 241.681 52.7014 241.821L52.3849 243.544 41.4162 243.544 47.4631 220.481 46.9709 220.271C44.9553 223.106 42.8986 225.263 40.801 226.739 38.7033 228.216 36.6584 228.954 34.6662 228.954 32.0881 228.954 30.09 227.981 28.6721 226.036 27.2541 224.091 26.5451 221.36 26.5451 217.845 26.5451 213.813 27.3361 209.94 28.9182 206.226 30.5002 202.511 32.674 199.581 35.4396 197.437 38.2053 195.292 41.2873 194.22 44.6857 194.22Z" fill-rule="evenodd"/><text fill="#000000" fill-opacity="0" font-family="Arial,Arial_MSFontService,sans-serif" font-size="49.3242" x="26.5451" y="237.378">𝑞</text><path d="M71.8827 177.485 87.5623 177.485 87.5623 180.192 77.7186 180.192 77.7186 241.821 87.5623 241.821 87.5623 244.528 71.8827 244.528Z" fill-rule="evenodd"/><text fill="#000000" fill-opacity="0" font-family="Arial,Arial_MSFontService,sans-serif" font-size="67.043" x="71.8827" y="236.148">[</text><path d="M108.967 182.864C107.35 182.864 105.997 183.345 104.907 184.306 103.817 185.267 102.938 186.649 102.27 188.454 101.602 190.259 101.127 192.456 100.846 195.046 100.565 197.636 100.424 200.56 100.424 203.817 100.424 211.458 101.133 217.065 102.551 220.64 103.969 224.214 106.167 226.001 109.143 226.001 111.979 226.001 114.083 224.319 115.454 220.956 116.825 217.593 117.51 212.384 117.51 205.329 117.51 199.938 117.159 195.573 116.456 192.233 115.752 188.894 114.774 186.497 113.52 185.044 112.266 183.591 110.749 182.864 108.967 182.864ZM109.143 179.876C114.276 179.876 118.096 181.856 120.604 185.817 123.112 189.778 124.366 195.767 124.366 203.782 124.366 212.079 123.024 218.355 120.34 222.608 117.657 226.862 113.737 228.989 108.581 228.989 103.518 228.989 99.7505 226.997 97.2778 223.013 94.8052 219.028 93.5689 212.981 93.5689 204.872 93.5689 200.56 93.9497 196.833 94.7114 193.692 95.4732 190.552 96.5396 187.956 97.9107 185.905 99.2817 183.855 100.928 182.337 102.85 181.353 104.772 180.368 106.87 179.876 109.143 179.876Z" fill-rule="evenodd"/><text fill="#000000" fill-opacity="0" font-family="Arial,Arial_MSFontService,sans-serif" font-size="49.1133" x="93.5689" y="222.85">0</text><path d="M130.379 177.485 146.058 177.485 146.058 244.528 130.379 244.528 130.379 241.821 140.223 241.821 140.223 180.192 130.379 180.192Z" fill-rule="evenodd"/><text fill="#000000" fill-opacity="0" font-family="Arial,Arial_MSFontService,sans-serif" font-size="67.043" x="130.379" y="236.148">]</text><path d="M45.3185 380.974C42.9279 380.974 40.7834 381.941 38.8849 383.874 36.9865 385.808 35.4924 388.415 34.4025 391.697 33.3127 394.978 32.7678 398.247 32.7678 401.505 32.7678 403.943 33.1017 405.765 33.7697 406.972 34.4377 408.179 35.5568 408.783 37.1271 408.783 37.8537 408.783 38.592 408.624 39.342 408.308 40.092 407.992 40.8713 407.482 41.6799 406.779 42.4885 406.076 43.2853 405.22 44.0705 404.212 44.8557 403.204 45.5764 402.191 46.2326 401.171 46.8889 400.152 47.4982 398.945 48.0607 397.55 48.6232 396.156 49.1037 394.474 49.5021 392.505L49.8185 390.994C50.1701 389.306 50.3459 387.712 50.3459 386.212 50.3459 384.384 49.9592 383.054 49.1857 382.222 48.4123 381.39 47.1232 380.974 45.3185 380.974ZM44.6857 378.197C46.1389 378.197 47.5217 378.367 48.8342 378.706 50.1467 379.046 51.506 379.65 52.9123 380.517L56.1467 378.197 58.3967 378.759 49.3967 418.732C48.9982 420.513 48.799 421.849 48.799 422.74 48.799 423.771 49.0627 424.503 49.59 424.937 50.1174 425.37 51.1545 425.658 52.7014 425.798L52.3849 427.521 41.4162 427.521 47.4631 404.458 46.9709 404.247C44.9553 407.083 42.8986 409.24 40.801 410.716 38.7033 412.193 36.6584 412.931 34.6662 412.931 32.0881 412.931 30.09 411.958 28.6721 410.013 27.2541 408.068 26.5451 405.337 26.5451 401.822 26.5451 397.79 27.3361 393.917 28.9182 390.203 30.5002 386.488 32.674 383.558 35.4396 381.413 38.2053 379.269 41.2873 378.197 44.6857 378.197Z" fill-rule="evenodd"/><text fill="#000000" fill-opacity="0" font-family="Arial,Arial_MSFontService,sans-serif" font-size="49.3242" x="26.5451" y="421.355">𝑞</text><path d="M71.8827 361.462 87.5623 361.462 87.5623 364.169 77.7186 364.169 77.7186 425.798 87.5623 425.798 87.5623 428.505 71.8827 428.505Z" fill-rule="evenodd"/><text fill="#000000" fill-opacity="0" font-family="Arial,Arial_MSFontService,sans-serif" font-size="67.043" x="71.8827" y="420.125">[</text><path d="M111.745 363.853 113.678 363.853C113.538 366.103 113.467 369.22 113.467 373.204L113.467 403.228C113.467 404.587 113.543 405.613 113.696 406.304 113.848 406.995 114.118 407.558 114.504 407.992 114.891 408.425 115.448 408.765 116.174 409.011 116.901 409.257 117.815 409.445 118.917 409.574 120.018 409.703 121.471 409.79 123.276 409.837L123.276 412.404 97.2954 412.404 97.2954 409.837C99.897 409.72 101.754 409.562 102.868 409.363 103.981 409.163 104.831 408.865 105.417 408.466 106.002 408.068 106.43 407.505 106.7 406.779 106.969 406.052 107.104 404.869 107.104 403.228L107.104 374.716C107.104 373.779 106.94 373.093 106.612 372.66 106.284 372.226 105.803 372.009 105.17 372.009 104.42 372.009 103.354 372.396 101.971 373.169 100.588 373.943 98.8774 375.009 96.8384 376.369L95.2915 373.661Z" fill-rule="evenodd"/><text fill="#000000" fill-opacity="0" font-family="Arial,Arial_MSFontService,sans-serif" font-size="48.5508" x="95.2915" y="406.335">1</text><path d="M130.379 361.462 146.058 361.462 146.058 428.505 130.379 428.505 130.379 425.798 140.223 425.798 140.223 364.169 130.379 364.169Z" fill-rule="evenodd"/><text fill="#000000" fill-opacity="0" font-family="Arial,Arial_MSFontService,sans-serif" font-size="67.043" x="130.379" y="420.125">]</text><path d="M456 207C456 180.49 477.49 159 504 159 530.51 159 552 180.49 552 207 552 233.51 530.51 255 504 255 477.49 255 456 233.51 456 207Z" stroke="#042433" stroke-width="2" stroke-miterlimit="8" fill-rule="evenodd"/><path d="M456 390C456 363.49 477.49 342 504 342 530.51 342 552 363.49 552 390 552 416.51 530.51 438 504 438 477.49 438 456 416.51 456 390Z" stroke="#042433" stroke-width="8" stroke-miterlimit="8" fill="none" fill-rule="evenodd"/><path d="M504 159 504 437.331" stroke="#000000" stroke-width="8" stroke-miterlimit="8" fill="none" fill-rule="evenodd"/><text font-family="Aptos,Aptos_MSFontService,sans-serif" font-weight="400" font-size="42.6667" transform="translate(449.063 542)">CNOT</text><text font-family="Aptos,Aptos_MSFontService,sans-serif" font-weight="400" font-size="42.6667" transform="translate(464.843 594)">gate</text><rect x="235" y="142" width="118" height="131" stroke="#042433" stroke-width="6" stroke-miterlimit="8" fill="#FFFFFF"/><path d="M281.844 188.119 293.302 188.119 292.987 189.523C292.261 189.676 291.741 189.847 291.426 190.038 291.111 190.229 290.829 190.516 290.581 190.898 290.332 191.28 290.074 191.876 289.807 192.688 289.54 193.5 289.206 194.822 288.805 196.656L286.857 205.421 302.239 205.421 304.187 196.627C304.359 195.844 304.507 195.008 304.631 194.12 304.755 193.232 304.818 192.531 304.818 192.015 304.818 191.117 304.593 190.492 304.144 190.139 303.696 189.785 302.984 189.58 302.01 189.523L302.325 188.119 313.784 188.119 313.469 189.523C312.743 189.676 312.223 189.847 311.907 190.038 311.592 190.229 311.311 190.516 311.062 190.898 310.814 191.28 310.556 191.876 310.289 192.688 310.022 193.5 309.687 194.822 309.286 196.656L304.388 218.885C304.14 220.011 303.977 220.904 303.901 221.563 303.824 222.222 303.786 222.819 303.786 223.354 303.786 224.213 304.001 224.819 304.431 225.173 304.861 225.526 305.581 225.741 306.594 225.817L306.278 227.221 294.82 227.221 295.135 225.817C295.861 225.702 296.405 225.516 296.768 225.258 297.131 225.001 297.436 224.643 297.685 224.184 297.933 223.726 298.162 223.167 298.372 222.508 298.582 221.85 298.897 220.575 299.318 218.684L301.667 208.057 286.284 208.057 283.906 218.885C283.696 219.84 283.543 220.627 283.448 221.248 283.352 221.869 283.305 222.571 283.305 223.354 283.305 224.175 283.495 224.767 283.877 225.13 284.259 225.492 285.004 225.722 286.112 225.817L285.797 227.221 274.338 227.221 274.653 225.817C275.379 225.702 275.923 225.516 276.286 225.258 276.649 225.001 276.955 224.643 277.203 224.184 277.451 223.726 277.68 223.167 277.89 222.508 278.101 221.85 278.416 220.575 278.836 218.684L283.706 196.627C283.877 195.844 284.025 195.008 284.15 194.12 284.274 193.232 284.336 192.531 284.336 192.015 284.336 191.117 284.111 190.492 283.663 190.139 283.214 189.785 282.502 189.58 281.528 189.523Z" fill-rule="evenodd"/><text fill="#000000" fill-opacity="0" font-family="Arial,Arial_MSFontService,sans-serif" font-size="39.1016" x="274.338" y="222.333">𝐻</text><text font-family="Aptos,Aptos_MSFontService,sans-serif" font-weight="400" font-size="42.6667" transform="translate(195.576 542)">Hadamard</text><text font-family="Aptos,Aptos_MSFontService,sans-serif" font-weight="400" font-size="42.6667" transform="translate(254.309 594)">gate</text><rect x="1025" y="141" width="118" height="132" stroke="#042433" stroke-width="6" stroke-miterlimit="8" fill="#FFFFFF"/><path d="M1047 226C1047 203.909 1063.79 186 1084.5 186 1105.21 186 1122 203.909 1122 226 1122 226.027 1122 226.054 1122 226.08" stroke="#000000" stroke-width="4" stroke-miterlimit="8" fill="none" fill-rule="evenodd"/><path d="M1.31917-0.713998 29.6412 51.6133 27.0029 53.0413-1.31917 0.713998ZM31.5656 48.8661 31.8921 58.9231 23.6506 53.1501Z" transform="matrix(1 0 0 -1 1084.5 225.423)"/><text font-family="Aptos,Aptos_MSFontService,sans-serif" font-weight="700" font-size="37.3333" transform="translate(1074.03 258)">Z</text><rect x="1025" y="323" width="118" height="132" stroke="#042433" stroke-width="6" stroke-miterlimit="8" fill="#FFFFFF"/><path d="M1047 408C1047 385.909 1063.79 368 1084.5 368 1105.21 368 1122 385.909 1122 408 1122 408.027 1122 408.054 1122 408.08" stroke="#000000" stroke-width="4" stroke-miterlimit="8" fill="none" fill-rule="evenodd"/><path d="M1.31917-0.713998 29.6412 51.6133 27.0029 53.0413-1.31917 0.713998ZM31.5656 48.8661 31.8921 58.9231 23.6506 53.1501Z" transform="matrix(1 0 0 -1 1084.5 407.423)"/><text font-family="Aptos,Aptos_MSFontService,sans-serif" font-weight="700" font-size="37.3333" transform="translate(1074.03 440)">Z</text><text font-family="Aptos,Aptos_MSFontService,sans-serif" font-weight="400" font-size="42.6667" transform="translate(956.599 542)">Measurement</text><text font-family="Aptos,Aptos_MSFontService,sans-serif" font-weight="400" font-size="42.6667" transform="translate(996.699 594)">in</text><text font-family="Cambria Math,Cambria Math_MSFontService,sans-serif" font-weight="400" font-size="42.6667" transform="translate(1039.03 594)">𝑍</text><text font-family="Aptos,Aptos_MSFontService,sans-serif" font-weight="400" font-size="42.6667" transform="translate(1074.07 594)">basis</text><rect x="658" y="142" width="242" height="131" stroke="#042433" stroke-width="6" stroke-miterlimit="8" fill="#FFFFFF"/><text font-family="Cambria Math,Cambria Math_MSFontService,sans-serif" font-weight="400" font-size="48" transform="translate(676.013 222)">𝑅</text><text font-family="Cambria Math,Cambria Math_MSFontService,sans-serif" font-weight="400" font-size="35.04" transform="translate(705.859 232)">𝑦</text><text font-family="Cambria Math,Cambria Math_MSFontService,sans-serif" font-weight="400" font-size="48" transform="translate(730.872 222)">(</text><text font-family="Cambria Math,Cambria Math_MSFontService,sans-serif" font-weight="400" font-size="48" transform="translate(750.872 222)">−</text><text font-family="Cambria Math,Cambria Math_MSFontService,sans-serif" font-weight="400" font-size="48" transform="translate(786.706 222)">2</text><text font-family="Cambria Math,Cambria Math_MSFontService,sans-serif" font-weight="400" font-size="48" transform="translate(813.206 222)">𝜃</text><text font-family="Cambria Math,Cambria Math_MSFontService,sans-serif" font-weight="400" font-size="35.04" transform="translate(836.126 232)">𝐴</text><text font-family="Cambria Math,Cambria Math_MSFontService,sans-serif" font-weight="400" font-size="48" transform="translate(861.626 222)">)</text><rect x="658" y="324" width="242" height="132" stroke="#042433" stroke-width="6" stroke-miterlimit="8" fill="#FFFFFF"/><text font-family="Cambria Math,Cambria Math_MSFontService,sans-serif" font-weight="400" font-size="48" transform="translate(669.383 405)">𝑅</text><text font-family="Cambria Math,Cambria Math_MSFontService,sans-serif" font-weight="400" font-size="35.04" transform="translate(699.229 415)">𝑦</text><text font-family="Cambria Math,Cambria Math_MSFontService,sans-serif" font-weight="400" font-size="48" transform="translate(724.242 405)">(</text><text font-family="Cambria Math,Cambria Math_MSFontService,sans-serif" font-weight="400" font-size="48" transform="translate(744.242 405)">−</text><text font-family="Cambria Math,Cambria Math_MSFontService,sans-serif" font-weight="400" font-size="48" transform="translate(780.076 405)">2</text><text font-family="Cambria Math,Cambria Math_MSFontService,sans-serif" font-weight="400" font-size="48" transform="translate(806.576 405)">𝜃</text><text font-family="Cambria Math,Cambria Math_MSFontService,sans-serif" font-weight="400" font-size="35.04" transform="translate(831.889 415)">𝐵</text><text font-family="Cambria Math,Cambria Math_MSFontService,sans-serif" font-weight="400" font-size="48" transform="translate(858.656 405)">)</text><text font-family="Aptos,Aptos_MSFontService,sans-serif" font-weight="400" font-size="42.6667" transform="translate(690.456 542)">Rotations</text></g></svg>