<svg width="1280" height="720" xmlns="http://www.w3.org/2000/svg" xmlns:xlink="http://www.w3.org/1999/xlink" overflow="hidden"><defs><clipPath id="clip0"><rect x="0" y="0" width="1280" height="720"/></clipPath></defs><g clip-path="url(#clip0)"><rect x="0" y="0" width="1280" height="720" fill="#FFFFFF"/><path d="M79 149.667C79 130.521 94.5211 115 113.667 115L448.333 115C467.479 115 483 130.521 483 149.667L483 288.333C483 307.479 467.479 323 448.333 323L113.667 323C94.5211 323 79 307.479 79 288.333Z" stroke="#042433" stroke-width="2" stroke-miterlimit="8" fill="#D9D9D9" fill-rule="evenodd"/><text font-family="Aptos,Aptos_MSFontService,sans-serif" font-weight="400" font-size="32" transform="translate(160.66 230)">Pump and source</text><path d="M847.042 68.8162C874.723 39.6763 921.284 38.9763 951.039 67.2527 980.793 95.5291 982.473 142.074 954.792 171.214 954.714 171.296 954.636 171.377 954.559 171.458L900.917 120.015Z" stroke="#042433" stroke-width="2" stroke-miterlimit="8" fill="#D9D9D9" fill-rule="evenodd"/><path d="M896.074 263.041C923.756 233.901 970.317 233.201 1000.07 261.478 1029.83 289.754 1031.51 336.299 1003.82 365.439 1003.75 365.521 1003.67 365.602 1003.59 365.683L949.949 314.24Z" stroke="#042433" stroke-width="2" stroke-miterlimit="8" fill="#D9D9D9" fill-rule="evenodd"/><path d="M0 0 411.871 103.967" stroke="#C00000" stroke-width="2" stroke-miterlimit="8" fill="none" fill-rule="evenodd" transform="matrix(1 0 0 -1 483 218.967)"/><path d="M483 219 947.103 314.111" stroke="#C00000" stroke-width="2" stroke-miterlimit="8" fill="none" fill-rule="evenodd"/><path d="M0 0 360.877 342.128" stroke="#C00000" stroke-width="2" stroke-miterlimit="8" fill="none" fill-rule="evenodd" transform="matrix(1 0 0 -1 534 457.128)"/><path d="M0 0 156.009 150.988" stroke="#C00000" stroke-width="2" stroke-miterlimit="8" fill="none" fill-rule="evenodd" transform="matrix(1 0 0 -1 794 464.988)"/><text font-family="Aptos,Aptos_MSFontService,sans-serif" font-weight="400" font-size="24" transform="translate(663.02 101)">Bean folding mirror</text><path d="M848.019 517.13C820.454 546.38 773.896 547.267 744.029 519.11 714.162 490.952 712.295 444.414 739.86 415.164 739.937 415.082 740.015 415.001 740.092 414.919L793.939 466.147Z" stroke="#042433" stroke-width="2" stroke-miterlimit="8" fill="#D9D9D9" fill-rule="evenodd"/><path d="M590.071 508.273C562.506 537.524 515.948 538.41 486.081 510.253 456.214 482.096 454.348 435.558 481.913 406.307 481.99 406.225 482.067 406.144 482.145 406.062L535.992 457.29Z" stroke="#042433" stroke-width="2" stroke-miterlimit="8" fill="#D9D9D9" fill-rule="evenodd"/><path d="M483.544 506C437.373 523.222 391.202 540.444 392.239 560.767 393.277 581.089 495.476 600.895 489.77 627.933 484.063 654.972 381.518 707.156 358 723" stroke="#042433" stroke-width="2" stroke-miterlimit="8" fill="none" fill-rule="evenodd"/><text font-family="Aptos,Aptos_MSFontService,sans-serif" font-weight="400" font-size="24" transform="translate(381.523 622)">PM fiber</text><path d="M748.544 521C702.373 538.222 656.202 555.444 657.239 575.767 658.277 596.089 760.476 615.895 754.77 642.933 749.063 669.972 646.518 722.156 623 738" stroke="#042433" stroke-width="2" stroke-miterlimit="8" fill="none" fill-rule="evenodd"/><text font-family="Aptos,Aptos_MSFontService,sans-serif" font-weight="400" font-size="24" transform="translate(646.699 637)">PM fiber</text><path d="M504.077 377.419 616.144 487.236 606.902 496.667 494.835 386.851Z" stroke="#042433" stroke-width="2" stroke-miterlimit="8" fill-rule="evenodd"/><path d="M758.689 390.019 870.756 499.835 861.513 509.267 749.446 399.451Z" stroke="#042433" stroke-width="2" stroke-miterlimit="8" fill-rule="evenodd"/><text font-family="Aptos,Aptos_MSFontService,sans-serif" font-weight="400" font-size="24" transform="translate(587.73 446)">Polarizer</text><path d="M483 219 947.103 219" stroke="#BFBFBF" stroke-width="2" stroke-linecap="square" stroke-miterlimit="8" stroke-dasharray="6 2" fill="none" fill-rule="evenodd"/><text font-family="Aptos,Aptos_MSFontService,sans-serif" font-weight="400" font-size="24" transform="translate(935.222 389)">Bean folding mirror</text><text font-family="Aptos,Aptos_MSFontService,sans-serif" font-weight="400" font-size="24" transform="translate(843.312 453)">Polarizer</text><text font-family="Aptos,Aptos_MSFontService,sans-serif" font-weight="400" font-size="24" transform="translate(742.76 558)">Fiber coupler</text><text font-family="Aptos,Aptos_MSFontService,sans-serif" font-weight="400" font-size="24" transform="translate(459.532 556)">Fiber coupler</text></g></svg>