<?xml version="1.0" encoding="utf-8" standalone="no"?>
<!DOCTYPE svg PUBLIC "-//W3C//DTD SVG 1.1//EN"
  "http://www.w3.org/Graphics/SVG/1.1/DTD/svg11.dtd">
<svg xmlns:xlink="http://www.w3.org/1999/xlink" width="460.8pt" height="345.6pt" viewBox="0 0 460.8 345.6" xmlns="http://www.w3.org/2000/svg" version="1.1">
 <metadata>
  <rdf:RDF xmlns:dc="http://purl.org/dc/elements/1.1/" xmlns:cc="http://creativecommons.org/ns#" xmlns:rdf="http://www.w3.org/1999/02/22-rdf-syntax-ns#">
   <cc:Work>
    <dc:type rdf:resource="http://purl.org/dc/dcmitype/StillImage"/>
    <dc:date>2026-04-19T01:06:43.160872</dc:date>
    <dc:format>image/svg+xml</dc:format>
    <dc:creator>
     <cc:Agent>
      <dc:title>Matplotlib v3.10.8, https://matplotlib.org/</dc:title>
     </cc:Agent>
    </dc:creator>
   </cc:Work>
  </rdf:RDF>
 </metadata>
 <defs>
  <style type="text/css">*{stroke-linejoin: round; stroke-linecap: butt}</style>
 </defs>
 <g id="figure_1">
  <g id="patch_1">
   <path d="M 0 345.6 
L 460.8 345.6 
L 460.8 0 
L 0 0 
z
" style="fill: #ffffff"/>
  </g>
  <g id="axes_1">
   <g id="patch_2">
    <path d="M 44.57 303.64 
L 450 303.64 
L 450 26.88 
L 44.57 26.88 
z
" style="fill: #ffffff"/>
   </g>
   <g id="matplotlib.axis_1">
    <g id="xtick_1">
     <g id="line2d_1">
      <path d="M 48.246286 303.64 
L 48.246286 26.88 
" clip-path="url(#pc17894d88d)" style="fill: none; stroke: #b0b0b0; stroke-width: 0.8; stroke-linecap: square"/>
     </g>
     <g id="line2d_2">
      <defs>
       <path id="m2e77870be8" d="M 0 0 
L 0 3.5 
" style="stroke: #000000; stroke-width: 0.8"/>
      </defs>
      <g>
       <use xlink:href="#m2e77870be8" x="48.246286" y="303.64" style="stroke: #000000; stroke-width: 0.8"/>
      </g>
     </g>
     <g id="text_1">
      <!-- −10 -->
      <g transform="translate(37.693942 318.238437) scale(0.1 -0.1)">
       <defs>
        <path id="DejaVuSans-2212" d="M 678 2272 
L 4684 2272 
L 4684 1741 
L 678 1741 
L 678 2272 
z
" transform="scale(0.015625)"/>
        <path id="DejaVuSans-31" d="M 794 531 
L 1825 531 
L 1825 4091 
L 703 3866 
L 703 4441 
L 1819 4666 
L 2450 4666 
L 2450 531 
L 3481 531 
L 3481 0 
L 794 0 
L 794 531 
z
" transform="scale(0.015625)"/>
        <path id="DejaVuSans-30" d="M 2034 4250 
Q 1547 4250 1301 3770 
Q 1056 3291 1056 2328 
Q 1056 1369 1301 889 
Q 1547 409 2034 409 
Q 2525 409 2770 889 
Q 3016 1369 3016 2328 
Q 3016 3291 2770 3770 
Q 2525 4250 2034 4250 
z
M 2034 4750 
Q 2819 4750 3233 4129 
Q 3647 3509 3647 2328 
Q 3647 1150 3233 529 
Q 2819 -91 2034 -91 
Q 1250 -91 836 529 
Q 422 1150 422 2328 
Q 422 3509 836 4129 
Q 1250 4750 2034 4750 
z
" transform="scale(0.015625)"/>
       </defs>
       <use xlink:href="#DejaVuSans-2212"/>
       <use xlink:href="#DejaVuSans-31" transform="translate(83.789062 0)"/>
       <use xlink:href="#DejaVuSans-30" transform="translate(147.412109 0)"/>
      </g>
     </g>
    </g>
    <g id="xtick_2">
     <g id="line2d_3">
      <path d="M 95.453808 303.64 
L 95.453808 26.88 
" clip-path="url(#pc17894d88d)" style="fill: none; stroke: #b0b0b0; stroke-width: 0.8; stroke-linecap: square"/>
     </g>
     <g id="line2d_4">
      <g>
       <use xlink:href="#m2e77870be8" x="95.453808" y="303.64" style="stroke: #000000; stroke-width: 0.8"/>
      </g>
     </g>
     <g id="text_2">
      <!-- −5 -->
      <g transform="translate(88.082714 318.238437) scale(0.1 -0.1)">
       <defs>
        <path id="DejaVuSans-35" d="M 691 4666 
L 3169 4666 
L 3169 4134 
L 1269 4134 
L 1269 2991 
Q 1406 3038 1543 3061 
Q 1681 3084 1819 3084 
Q 2600 3084 3056 2656 
Q 3513 2228 3513 1497 
Q 3513 744 3044 326 
Q 2575 -91 1722 -91 
Q 1428 -91 1123 -41 
Q 819 9 494 109 
L 494 744 
Q 775 591 1075 516 
Q 1375 441 1709 441 
Q 2250 441 2565 725 
Q 2881 1009 2881 1497 
Q 2881 1984 2565 2268 
Q 2250 2553 1709 2553 
Q 1456 2553 1204 2497 
Q 953 2441 691 2322 
L 691 4666 
z
" transform="scale(0.015625)"/>
       </defs>
       <use xlink:href="#DejaVuSans-2212"/>
       <use xlink:href="#DejaVuSans-35" transform="translate(83.789062 0)"/>
      </g>
     </g>
    </g>
    <g id="xtick_3">
     <g id="line2d_5">
      <path d="M 142.66133 303.64 
L 142.66133 26.88 
" clip-path="url(#pc17894d88d)" style="fill: none; stroke: #b0b0b0; stroke-width: 0.8; stroke-linecap: square"/>
     </g>
     <g id="line2d_6">
      <g>
       <use xlink:href="#m2e77870be8" x="142.66133" y="303.64" style="stroke: #000000; stroke-width: 0.8"/>
      </g>
     </g>
     <g id="text_3">
      <!-- 0 -->
      <g transform="translate(139.48008 318.238437) scale(0.1 -0.1)">
       <use xlink:href="#DejaVuSans-30"/>
      </g>
     </g>
    </g>
    <g id="xtick_4">
     <g id="line2d_7">
      <path d="M 189.868851 303.64 
L 189.868851 26.88 
" clip-path="url(#pc17894d88d)" style="fill: none; stroke: #b0b0b0; stroke-width: 0.8; stroke-linecap: square"/>
     </g>
     <g id="line2d_8">
      <g>
       <use xlink:href="#m2e77870be8" x="189.868851" y="303.64" style="stroke: #000000; stroke-width: 0.8"/>
      </g>
     </g>
     <g id="text_4">
      <!-- 5 -->
      <g transform="translate(186.687601 318.238437) scale(0.1 -0.1)">
       <use xlink:href="#DejaVuSans-35"/>
      </g>
     </g>
    </g>
    <g id="xtick_5">
     <g id="line2d_9">
      <path d="M 237.076373 303.64 
L 237.076373 26.88 
" clip-path="url(#pc17894d88d)" style="fill: none; stroke: #b0b0b0; stroke-width: 0.8; stroke-linecap: square"/>
     </g>
     <g id="line2d_10">
      <g>
       <use xlink:href="#m2e77870be8" x="237.076373" y="303.64" style="stroke: #000000; stroke-width: 0.8"/>
      </g>
     </g>
     <g id="text_5">
      <!-- 10 -->
      <g transform="translate(230.713873 318.238437) scale(0.1 -0.1)">
       <use xlink:href="#DejaVuSans-31"/>
       <use xlink:href="#DejaVuSans-30" transform="translate(63.623047 0)"/>
      </g>
     </g>
    </g>
    <g id="xtick_6">
     <g id="line2d_11">
      <path d="M 284.283895 303.64 
L 284.283895 26.88 
" clip-path="url(#pc17894d88d)" style="fill: none; stroke: #b0b0b0; stroke-width: 0.8; stroke-linecap: square"/>
     </g>
     <g id="line2d_12">
      <g>
       <use xlink:href="#m2e77870be8" x="284.283895" y="303.64" style="stroke: #000000; stroke-width: 0.8"/>
      </g>
     </g>
     <g id="text_6">
      <!-- 15 -->
      <g transform="translate(277.921395 318.238437) scale(0.1 -0.1)">
       <use xlink:href="#DejaVuSans-31"/>
       <use xlink:href="#DejaVuSans-35" transform="translate(63.623047 0)"/>
      </g>
     </g>
    </g>
    <g id="xtick_7">
     <g id="line2d_13">
      <path d="M 331.491417 303.64 
L 331.491417 26.88 
" clip-path="url(#pc17894d88d)" style="fill: none; stroke: #b0b0b0; stroke-width: 0.8; stroke-linecap: square"/>
     </g>
     <g id="line2d_14">
      <g>
       <use xlink:href="#m2e77870be8" x="331.491417" y="303.64" style="stroke: #000000; stroke-width: 0.8"/>
      </g>
     </g>
     <g id="text_7">
      <!-- 20 -->
      <g transform="translate(325.128917 318.238437) scale(0.1 -0.1)">
       <defs>
        <path id="DejaVuSans-32" d="M 1228 531 
L 3431 531 
L 3431 0 
L 469 0 
L 469 531 
Q 828 903 1448 1529 
Q 2069 2156 2228 2338 
Q 2531 2678 2651 2914 
Q 2772 3150 2772 3378 
Q 2772 3750 2511 3984 
Q 2250 4219 1831 4219 
Q 1534 4219 1204 4116 
Q 875 4013 500 3803 
L 500 4441 
Q 881 4594 1212 4672 
Q 1544 4750 1819 4750 
Q 2544 4750 2975 4387 
Q 3406 4025 3406 3419 
Q 3406 3131 3298 2873 
Q 3191 2616 2906 2266 
Q 2828 2175 2409 1742 
Q 1991 1309 1228 531 
z
" transform="scale(0.015625)"/>
       </defs>
       <use xlink:href="#DejaVuSans-32"/>
       <use xlink:href="#DejaVuSans-30" transform="translate(63.623047 0)"/>
      </g>
     </g>
    </g>
    <g id="xtick_8">
     <g id="line2d_15">
      <path d="M 378.698939 303.64 
L 378.698939 26.88 
" clip-path="url(#pc17894d88d)" style="fill: none; stroke: #b0b0b0; stroke-width: 0.8; stroke-linecap: square"/>
     </g>
     <g id="line2d_16">
      <g>
       <use xlink:href="#m2e77870be8" x="378.698939" y="303.64" style="stroke: #000000; stroke-width: 0.8"/>
      </g>
     </g>
     <g id="text_8">
      <!-- 25 -->
      <g transform="translate(372.336439 318.238437) scale(0.1 -0.1)">
       <use xlink:href="#DejaVuSans-32"/>
       <use xlink:href="#DejaVuSans-35" transform="translate(63.623047 0)"/>
      </g>
     </g>
    </g>
    <g id="xtick_9">
     <g id="line2d_17">
      <path d="M 425.906461 303.64 
L 425.906461 26.88 
" clip-path="url(#pc17894d88d)" style="fill: none; stroke: #b0b0b0; stroke-width: 0.8; stroke-linecap: square"/>
     </g>
     <g id="line2d_18">
      <g>
       <use xlink:href="#m2e77870be8" x="425.906461" y="303.64" style="stroke: #000000; stroke-width: 0.8"/>
      </g>
     </g>
     <g id="text_9">
      <!-- 30 -->
      <g transform="translate(419.543961 318.238437) scale(0.1 -0.1)">
       <defs>
        <path id="DejaVuSans-33" d="M 2597 2516 
Q 3050 2419 3304 2112 
Q 3559 1806 3559 1356 
Q 3559 666 3084 287 
Q 2609 -91 1734 -91 
Q 1441 -91 1130 -33 
Q 819 25 488 141 
L 488 750 
Q 750 597 1062 519 
Q 1375 441 1716 441 
Q 2309 441 2620 675 
Q 2931 909 2931 1356 
Q 2931 1769 2642 2001 
Q 2353 2234 1838 2234 
L 1294 2234 
L 1294 2753 
L 1863 2753 
Q 2328 2753 2575 2939 
Q 2822 3125 2822 3475 
Q 2822 3834 2567 4026 
Q 2313 4219 1838 4219 
Q 1578 4219 1281 4162 
Q 984 4106 628 3988 
L 628 4550 
Q 988 4650 1302 4700 
Q 1616 4750 1894 4750 
Q 2613 4750 3031 4423 
Q 3450 4097 3450 3541 
Q 3450 3153 3228 2886 
Q 3006 2619 2597 2516 
z
" transform="scale(0.015625)"/>
       </defs>
       <use xlink:href="#DejaVuSans-33"/>
       <use xlink:href="#DejaVuSans-30" transform="translate(63.623047 0)"/>
      </g>
     </g>
    </g>
    <g id="text_10">
     <!-- Position (µm) -->
     <g transform="translate(214.27875 331.916562) scale(0.1 -0.1)">
      <defs>
       <path id="DejaVuSans-50" d="M 1259 4147 
L 1259 2394 
L 2053 2394 
Q 2494 2394 2734 2622 
Q 2975 2850 2975 3272 
Q 2975 3691 2734 3919 
Q 2494 4147 2053 4147 
L 1259 4147 
z
M 628 4666 
L 2053 4666 
Q 2838 4666 3239 4311 
Q 3641 3956 3641 3272 
Q 3641 2581 3239 2228 
Q 2838 1875 2053 1875 
L 1259 1875 
L 1259 0 
L 628 0 
L 628 4666 
z
" transform="scale(0.015625)"/>
       <path id="DejaVuSans-6f" d="M 1959 3097 
Q 1497 3097 1228 2736 
Q 959 2375 959 1747 
Q 959 1119 1226 758 
Q 1494 397 1959 397 
Q 2419 397 2687 759 
Q 2956 1122 2956 1747 
Q 2956 2369 2687 2733 
Q 2419 3097 1959 3097 
z
M 1959 3584 
Q 2709 3584 3137 3096 
Q 3566 2609 3566 1747 
Q 3566 888 3137 398 
Q 2709 -91 1959 -91 
Q 1206 -91 779 398 
Q 353 888 353 1747 
Q 353 2609 779 3096 
Q 1206 3584 1959 3584 
z
" transform="scale(0.015625)"/>
       <path id="DejaVuSans-73" d="M 2834 3397 
L 2834 2853 
Q 2591 2978 2328 3040 
Q 2066 3103 1784 3103 
Q 1356 3103 1142 2972 
Q 928 2841 928 2578 
Q 928 2378 1081 2264 
Q 1234 2150 1697 2047 
L 1894 2003 
Q 2506 1872 2764 1633 
Q 3022 1394 3022 966 
Q 3022 478 2636 193 
Q 2250 -91 1575 -91 
Q 1294 -91 989 -36 
Q 684 19 347 128 
L 347 722 
Q 666 556 975 473 
Q 1284 391 1588 391 
Q 1994 391 2212 530 
Q 2431 669 2431 922 
Q 2431 1156 2273 1281 
Q 2116 1406 1581 1522 
L 1381 1569 
Q 847 1681 609 1914 
Q 372 2147 372 2553 
Q 372 3047 722 3315 
Q 1072 3584 1716 3584 
Q 2034 3584 2315 3537 
Q 2597 3491 2834 3397 
z
" transform="scale(0.015625)"/>
       <path id="DejaVuSans-69" d="M 603 3500 
L 1178 3500 
L 1178 0 
L 603 0 
L 603 3500 
z
M 603 4863 
L 1178 4863 
L 1178 4134 
L 603 4134 
L 603 4863 
z
" transform="scale(0.015625)"/>
       <path id="DejaVuSans-74" d="M 1172 4494 
L 1172 3500 
L 2356 3500 
L 2356 3053 
L 1172 3053 
L 1172 1153 
Q 1172 725 1289 603 
Q 1406 481 1766 481 
L 2356 481 
L 2356 0 
L 1766 0 
Q 1100 0 847 248 
Q 594 497 594 1153 
L 594 3053 
L 172 3053 
L 172 3500 
L 594 3500 
L 594 4494 
L 1172 4494 
z
" transform="scale(0.015625)"/>
       <path id="DejaVuSans-6e" d="M 3513 2113 
L 3513 0 
L 2938 0 
L 2938 2094 
Q 2938 2591 2744 2837 
Q 2550 3084 2163 3084 
Q 1697 3084 1428 2787 
Q 1159 2491 1159 1978 
L 1159 0 
L 581 0 
L 581 3500 
L 1159 3500 
L 1159 2956 
Q 1366 3272 1645 3428 
Q 1925 3584 2291 3584 
Q 2894 3584 3203 3211 
Q 3513 2838 3513 2113 
z
" transform="scale(0.015625)"/>
       <path id="DejaVuSans-20" transform="scale(0.015625)"/>
       <path id="DejaVuSans-28" d="M 1984 4856 
Q 1566 4138 1362 3434 
Q 1159 2731 1159 2009 
Q 1159 1288 1364 580 
Q 1569 -128 1984 -844 
L 1484 -844 
Q 1016 -109 783 600 
Q 550 1309 550 2009 
Q 550 2706 781 3412 
Q 1013 4119 1484 4856 
L 1984 4856 
z
" transform="scale(0.015625)"/>
       <path id="DejaVuSans-b5" d="M 544 -1331 
L 544 3500 
L 1119 3500 
L 1119 1325 
Q 1119 872 1334 640 
Q 1550 409 1972 409 
Q 2434 409 2667 671 
Q 2900 934 2900 1459 
L 2900 3500 
L 3475 3500 
L 3475 806 
Q 3475 619 3529 530 
Q 3584 441 3700 441 
Q 3728 441 3778 458 
Q 3828 475 3916 513 
L 3916 50 
Q 3788 -22 3673 -56 
Q 3559 -91 3450 -91 
Q 3234 -91 3106 31 
Q 2978 153 2931 403 
Q 2775 156 2548 32 
Q 2322 -91 2016 -91 
Q 1697 -91 1473 31 
Q 1250 153 1119 397 
L 1119 -1331 
L 544 -1331 
z
" transform="scale(0.015625)"/>
       <path id="DejaVuSans-6d" d="M 3328 2828 
Q 3544 3216 3844 3400 
Q 4144 3584 4550 3584 
Q 5097 3584 5394 3201 
Q 5691 2819 5691 2113 
L 5691 0 
L 5113 0 
L 5113 2094 
Q 5113 2597 4934 2840 
Q 4756 3084 4391 3084 
Q 3944 3084 3684 2787 
Q 3425 2491 3425 1978 
L 3425 0 
L 2847 0 
L 2847 2094 
Q 2847 2600 2669 2842 
Q 2491 3084 2119 3084 
Q 1678 3084 1418 2786 
Q 1159 2488 1159 1978 
L 1159 0 
L 581 0 
L 581 3500 
L 1159 3500 
L 1159 2956 
Q 1356 3278 1631 3431 
Q 1906 3584 2284 3584 
Q 2666 3584 2933 3390 
Q 3200 3197 3328 2828 
z
" transform="scale(0.015625)"/>
       <path id="DejaVuSans-29" d="M 513 4856 
L 1013 4856 
Q 1481 4119 1714 3412 
Q 1947 2706 1947 2009 
Q 1947 1309 1714 600 
Q 1481 -109 1013 -844 
L 513 -844 
Q 928 -128 1133 580 
Q 1338 1288 1338 2009 
Q 1338 2731 1133 3434 
Q 928 4138 513 4856 
z
" transform="scale(0.015625)"/>
      </defs>
      <use xlink:href="#DejaVuSans-50"/>
      <use xlink:href="#DejaVuSans-6f" transform="translate(56.677734 0)"/>
      <use xlink:href="#DejaVuSans-73" transform="translate(117.859375 0)"/>
      <use xlink:href="#DejaVuSans-69" transform="translate(169.958984 0)"/>
      <use xlink:href="#DejaVuSans-74" transform="translate(197.742188 0)"/>
      <use xlink:href="#DejaVuSans-69" transform="translate(236.951172 0)"/>
      <use xlink:href="#DejaVuSans-6f" transform="translate(264.734375 0)"/>
      <use xlink:href="#DejaVuSans-6e" transform="translate(325.916016 0)"/>
      <use xlink:href="#DejaVuSans-20" transform="translate(389.294922 0)"/>
      <use xlink:href="#DejaVuSans-28" transform="translate(421.082031 0)"/>
      <use xlink:href="#DejaVuSans-b5" transform="translate(460.095703 0)"/>
      <use xlink:href="#DejaVuSans-6d" transform="translate(523.71875 0)"/>
      <use xlink:href="#DejaVuSans-29" transform="translate(621.130859 0)"/>
     </g>
    </g>
   </g>
   <g id="matplotlib.axis_2">
    <g id="ytick_1">
     <g id="line2d_19">
      <path d="M 44.57 255.793891 
L 450 255.793891 
" clip-path="url(#pc17894d88d)" style="fill: none; stroke: #b0b0b0; stroke-width: 0.8; stroke-linecap: square"/>
     </g>
     <g id="line2d_20">
      <defs>
       <path id="mc16971296d" d="M 0 0 
L -3.5 0 
" style="stroke: #000000; stroke-width: 0.8"/>
      </defs>
      <g>
       <use xlink:href="#mc16971296d" x="44.57" y="255.793891" style="stroke: #000000; stroke-width: 0.8"/>
      </g>
     </g>
     <g id="text_11">
      <!-- 40 -->
      <g transform="translate(24.845 259.59311) scale(0.1 -0.1)">
       <defs>
        <path id="DejaVuSans-34" d="M 2419 4116 
L 825 1625 
L 2419 1625 
L 2419 4116 
z
M 2253 4666 
L 3047 4666 
L 3047 1625 
L 3713 1625 
L 3713 1100 
L 3047 1100 
L 3047 0 
L 2419 0 
L 2419 1100 
L 313 1100 
L 313 1709 
L 2253 4666 
z
" transform="scale(0.015625)"/>
       </defs>
       <use xlink:href="#DejaVuSans-34"/>
       <use xlink:href="#DejaVuSans-30" transform="translate(63.623047 0)"/>
      </g>
     </g>
    </g>
    <g id="ytick_2">
     <g id="line2d_21">
      <path d="M 44.57 203.157908 
L 450 203.157908 
" clip-path="url(#pc17894d88d)" style="fill: none; stroke: #b0b0b0; stroke-width: 0.8; stroke-linecap: square"/>
     </g>
     <g id="line2d_22">
      <g>
       <use xlink:href="#mc16971296d" x="44.57" y="203.157908" style="stroke: #000000; stroke-width: 0.8"/>
      </g>
     </g>
     <g id="text_12">
      <!-- 50 -->
      <g transform="translate(24.845 206.957127) scale(0.1 -0.1)">
       <use xlink:href="#DejaVuSans-35"/>
       <use xlink:href="#DejaVuSans-30" transform="translate(63.623047 0)"/>
      </g>
     </g>
    </g>
    <g id="ytick_3">
     <g id="line2d_23">
      <path d="M 44.57 150.521925 
L 450 150.521925 
" clip-path="url(#pc17894d88d)" style="fill: none; stroke: #b0b0b0; stroke-width: 0.8; stroke-linecap: square"/>
     </g>
     <g id="line2d_24">
      <g>
       <use xlink:href="#mc16971296d" x="44.57" y="150.521925" style="stroke: #000000; stroke-width: 0.8"/>
      </g>
     </g>
     <g id="text_13">
      <!-- 60 -->
      <g transform="translate(24.845 154.321143) scale(0.1 -0.1)">
       <defs>
        <path id="DejaVuSans-36" d="M 2113 2584 
Q 1688 2584 1439 2293 
Q 1191 2003 1191 1497 
Q 1191 994 1439 701 
Q 1688 409 2113 409 
Q 2538 409 2786 701 
Q 3034 994 3034 1497 
Q 3034 2003 2786 2293 
Q 2538 2584 2113 2584 
z
M 3366 4563 
L 3366 3988 
Q 3128 4100 2886 4159 
Q 2644 4219 2406 4219 
Q 1781 4219 1451 3797 
Q 1122 3375 1075 2522 
Q 1259 2794 1537 2939 
Q 1816 3084 2150 3084 
Q 2853 3084 3261 2657 
Q 3669 2231 3669 1497 
Q 3669 778 3244 343 
Q 2819 -91 2113 -91 
Q 1303 -91 875 529 
Q 447 1150 447 2328 
Q 447 3434 972 4092 
Q 1497 4750 2381 4750 
Q 2619 4750 2861 4703 
Q 3103 4656 3366 4563 
z
" transform="scale(0.015625)"/>
       </defs>
       <use xlink:href="#DejaVuSans-36"/>
       <use xlink:href="#DejaVuSans-30" transform="translate(63.623047 0)"/>
      </g>
     </g>
    </g>
    <g id="ytick_4">
     <g id="line2d_25">
      <path d="M 44.57 97.885941 
L 450 97.885941 
" clip-path="url(#pc17894d88d)" style="fill: none; stroke: #b0b0b0; stroke-width: 0.8; stroke-linecap: square"/>
     </g>
     <g id="line2d_26">
      <g>
       <use xlink:href="#mc16971296d" x="44.57" y="97.885941" style="stroke: #000000; stroke-width: 0.8"/>
      </g>
     </g>
     <g id="text_14">
      <!-- 70 -->
      <g transform="translate(24.845 101.68516) scale(0.1 -0.1)">
       <defs>
        <path id="DejaVuSans-37" d="M 525 4666 
L 3525 4666 
L 3525 4397 
L 1831 0 
L 1172 0 
L 2766 4134 
L 525 4134 
L 525 4666 
z
" transform="scale(0.015625)"/>
       </defs>
       <use xlink:href="#DejaVuSans-37"/>
       <use xlink:href="#DejaVuSans-30" transform="translate(63.623047 0)"/>
      </g>
     </g>
    </g>
    <g id="ytick_5">
     <g id="line2d_27">
      <path d="M 44.57 45.249958 
L 450 45.249958 
" clip-path="url(#pc17894d88d)" style="fill: none; stroke: #b0b0b0; stroke-width: 0.8; stroke-linecap: square"/>
     </g>
     <g id="line2d_28">
      <g>
       <use xlink:href="#mc16971296d" x="44.57" y="45.249958" style="stroke: #000000; stroke-width: 0.8"/>
      </g>
     </g>
     <g id="text_15">
      <!-- 80 -->
      <g transform="translate(24.845 49.049177) scale(0.1 -0.1)">
       <defs>
        <path id="DejaVuSans-38" d="M 2034 2216 
Q 1584 2216 1326 1975 
Q 1069 1734 1069 1313 
Q 1069 891 1326 650 
Q 1584 409 2034 409 
Q 2484 409 2743 651 
Q 3003 894 3003 1313 
Q 3003 1734 2745 1975 
Q 2488 2216 2034 2216 
z
M 1403 2484 
Q 997 2584 770 2862 
Q 544 3141 544 3541 
Q 544 4100 942 4425 
Q 1341 4750 2034 4750 
Q 2731 4750 3128 4425 
Q 3525 4100 3525 3541 
Q 3525 3141 3298 2862 
Q 3072 2584 2669 2484 
Q 3125 2378 3379 2068 
Q 3634 1759 3634 1313 
Q 3634 634 3220 271 
Q 2806 -91 2034 -91 
Q 1263 -91 848 271 
Q 434 634 434 1313 
Q 434 1759 690 2068 
Q 947 2378 1403 2484 
z
M 1172 3481 
Q 1172 3119 1398 2916 
Q 1625 2713 2034 2713 
Q 2441 2713 2670 2916 
Q 2900 3119 2900 3481 
Q 2900 3844 2670 4047 
Q 2441 4250 2034 4250 
Q 1625 4250 1398 4047 
Q 1172 3844 1172 3481 
z
" transform="scale(0.015625)"/>
       </defs>
       <use xlink:href="#DejaVuSans-38"/>
       <use xlink:href="#DejaVuSans-30" transform="translate(63.623047 0)"/>
      </g>
     </g>
    </g>
    <g id="text_16">
     <!-- Coincidence Counts -->
     <g transform="translate(18.765313 214.794375) rotate(-90) scale(0.1 -0.1)">
      <defs>
       <path id="DejaVuSans-43" d="M 4122 4306 
L 4122 3641 
Q 3803 3938 3442 4084 
Q 3081 4231 2675 4231 
Q 1875 4231 1450 3742 
Q 1025 3253 1025 2328 
Q 1025 1406 1450 917 
Q 1875 428 2675 428 
Q 3081 428 3442 575 
Q 3803 722 4122 1019 
L 4122 359 
Q 3791 134 3420 21 
Q 3050 -91 2638 -91 
Q 1578 -91 968 557 
Q 359 1206 359 2328 
Q 359 3453 968 4101 
Q 1578 4750 2638 4750 
Q 3056 4750 3426 4639 
Q 3797 4528 4122 4306 
z
" transform="scale(0.015625)"/>
       <path id="DejaVuSans-63" d="M 3122 3366 
L 3122 2828 
Q 2878 2963 2633 3030 
Q 2388 3097 2138 3097 
Q 1578 3097 1268 2742 
Q 959 2388 959 1747 
Q 959 1106 1268 751 
Q 1578 397 2138 397 
Q 2388 397 2633 464 
Q 2878 531 3122 666 
L 3122 134 
Q 2881 22 2623 -34 
Q 2366 -91 2075 -91 
Q 1284 -91 818 406 
Q 353 903 353 1747 
Q 353 2603 823 3093 
Q 1294 3584 2113 3584 
Q 2378 3584 2631 3529 
Q 2884 3475 3122 3366 
z
" transform="scale(0.015625)"/>
       <path id="DejaVuSans-64" d="M 2906 2969 
L 2906 4863 
L 3481 4863 
L 3481 0 
L 2906 0 
L 2906 525 
Q 2725 213 2448 61 
Q 2172 -91 1784 -91 
Q 1150 -91 751 415 
Q 353 922 353 1747 
Q 353 2572 751 3078 
Q 1150 3584 1784 3584 
Q 2172 3584 2448 3432 
Q 2725 3281 2906 2969 
z
M 947 1747 
Q 947 1113 1208 752 
Q 1469 391 1925 391 
Q 2381 391 2643 752 
Q 2906 1113 2906 1747 
Q 2906 2381 2643 2742 
Q 2381 3103 1925 3103 
Q 1469 3103 1208 2742 
Q 947 2381 947 1747 
z
" transform="scale(0.015625)"/>
       <path id="DejaVuSans-65" d="M 3597 1894 
L 3597 1613 
L 953 1613 
Q 991 1019 1311 708 
Q 1631 397 2203 397 
Q 2534 397 2845 478 
Q 3156 559 3463 722 
L 3463 178 
Q 3153 47 2828 -22 
Q 2503 -91 2169 -91 
Q 1331 -91 842 396 
Q 353 884 353 1716 
Q 353 2575 817 3079 
Q 1281 3584 2069 3584 
Q 2775 3584 3186 3129 
Q 3597 2675 3597 1894 
z
M 3022 2063 
Q 3016 2534 2758 2815 
Q 2500 3097 2075 3097 
Q 1594 3097 1305 2825 
Q 1016 2553 972 2059 
L 3022 2063 
z
" transform="scale(0.015625)"/>
       <path id="DejaVuSans-75" d="M 544 1381 
L 544 3500 
L 1119 3500 
L 1119 1403 
Q 1119 906 1312 657 
Q 1506 409 1894 409 
Q 2359 409 2629 706 
Q 2900 1003 2900 1516 
L 2900 3500 
L 3475 3500 
L 3475 0 
L 2900 0 
L 2900 538 
Q 2691 219 2414 64 
Q 2138 -91 1772 -91 
Q 1169 -91 856 284 
Q 544 659 544 1381 
z
M 1991 3584 
L 1991 3584 
z
" transform="scale(0.015625)"/>
      </defs>
      <use xlink:href="#DejaVuSans-43"/>
      <use xlink:href="#DejaVuSans-6f" transform="translate(69.824219 0)"/>
      <use xlink:href="#DejaVuSans-69" transform="translate(131.005859 0)"/>
      <use xlink:href="#DejaVuSans-6e" transform="translate(158.789062 0)"/>
      <use xlink:href="#DejaVuSans-63" transform="translate(222.167969 0)"/>
      <use xlink:href="#DejaVuSans-69" transform="translate(277.148438 0)"/>
      <use xlink:href="#DejaVuSans-64" transform="translate(304.931641 0)"/>
      <use xlink:href="#DejaVuSans-65" transform="translate(368.408203 0)"/>
      <use xlink:href="#DejaVuSans-6e" transform="translate(429.931641 0)"/>
      <use xlink:href="#DejaVuSans-63" transform="translate(493.310547 0)"/>
      <use xlink:href="#DejaVuSans-65" transform="translate(548.291016 0)"/>
      <use xlink:href="#DejaVuSans-20" transform="translate(609.814453 0)"/>
      <use xlink:href="#DejaVuSans-43" transform="translate(641.601562 0)"/>
      <use xlink:href="#DejaVuSans-6f" transform="translate(711.425781 0)"/>
      <use xlink:href="#DejaVuSans-75" transform="translate(772.607422 0)"/>
      <use xlink:href="#DejaVuSans-6e" transform="translate(835.986328 0)"/>
      <use xlink:href="#DejaVuSans-74" transform="translate(899.365234 0)"/>
      <use xlink:href="#DejaVuSans-73" transform="translate(938.574219 0)"/>
     </g>
    </g>
   </g>
   <g id="line2d_29">
    <defs>
     <path id="m12a5b423ec" d="M 0 3 
C 0.795609 3 1.55874 2.683901 2.12132 2.12132 
C 2.683901 1.55874 3 0.795609 3 0 
C 3 -0.795609 2.683901 -1.55874 2.12132 -2.12132 
C 1.55874 -2.683901 0.795609 -3 0 -3 
C -0.795609 -3 -1.55874 -2.683901 -2.12132 -2.12132 
C -2.683901 -1.55874 -3 -0.795609 -3 0 
C -3 0.795609 -2.683901 1.55874 -2.12132 2.12132 
C -1.55874 2.683901 -0.795609 3 0 3 
z
" style="stroke: #1f77b4"/>
    </defs>
    <g clip-path="url(#pc17894d88d)">
     <use xlink:href="#m12a5b423ec" x="431.571364" y="82.095146" style="fill: #1f77b4; stroke: #1f77b4"/>
     <use xlink:href="#m12a5b423ec" x="428.856931" y="77.357908" style="fill: #1f77b4; stroke: #1f77b4"/>
     <use xlink:href="#m12a5b423ec" x="425.906461" y="68.409791" style="fill: #1f77b4; stroke: #1f77b4"/>
     <use xlink:href="#m12a5b423ec" x="422.955991" y="103.14954" style="fill: #1f77b4; stroke: #1f77b4"/>
     <use xlink:href="#m12a5b423ec" x="420.005521" y="112.097657" style="fill: #1f77b4; stroke: #1f77b4"/>
     <use xlink:href="#m12a5b423ec" x="417.055051" y="87.358745" style="fill: #1f77b4; stroke: #1f77b4"/>
     <use xlink:href="#m12a5b423ec" x="414.104581" y="93.148703" style="fill: #1f77b4; stroke: #1f77b4"/>
     <use xlink:href="#m12a5b423ec" x="411.15411" y="78.936987" style="fill: #1f77b4; stroke: #1f77b4"/>
     <use xlink:href="#m12a5b423ec" x="408.20364" y="58.935314" style="fill: #1f77b4; stroke: #1f77b4"/>
     <use xlink:href="#m12a5b423ec" x="405.25317" y="103.6759" style="fill: #1f77b4; stroke: #1f77b4"/>
     <use xlink:href="#m12a5b423ec" x="402.3027" y="71.04159" style="fill: #1f77b4; stroke: #1f77b4"/>
     <use xlink:href="#m12a5b423ec" x="399.35223" y="111.044937" style="fill: #1f77b4; stroke: #1f77b4"/>
     <use xlink:href="#m12a5b423ec" x="396.40176" y="82.621506" style="fill: #1f77b4; stroke: #1f77b4"/>
     <use xlink:href="#m12a5b423ec" x="393.45129" y="39.46" style="fill: #1f77b4; stroke: #1f77b4"/>
     <use xlink:href="#m12a5b423ec" x="390.50082" y="107.886778" style="fill: #1f77b4; stroke: #1f77b4"/>
     <use xlink:href="#m12a5b423ec" x="387.550349" y="93.675063" style="fill: #1f77b4; stroke: #1f77b4"/>
     <use xlink:href="#m12a5b423ec" x="384.599879" y="81.568787" style="fill: #1f77b4; stroke: #1f77b4"/>
     <use xlink:href="#m12a5b423ec" x="381.649409" y="64.725272" style="fill: #1f77b4; stroke: #1f77b4"/>
     <use xlink:href="#m12a5b423ec" x="378.698939" y="78.936987" style="fill: #1f77b4; stroke: #1f77b4"/>
     <use xlink:href="#m12a5b423ec" x="375.748469" y="100.517741" style="fill: #1f77b4; stroke: #1f77b4"/>
     <use xlink:href="#m12a5b423ec" x="372.797999" y="104.728619" style="fill: #1f77b4; stroke: #1f77b4"/>
     <use xlink:href="#m12a5b423ec" x="369.847529" y="97.359582" style="fill: #1f77b4; stroke: #1f77b4"/>
     <use xlink:href="#m12a5b423ec" x="366.897059" y="89.990544" style="fill: #1f77b4; stroke: #1f77b4"/>
     <use xlink:href="#m12a5b423ec" x="363.946589" y="89.990544" style="fill: #1f77b4; stroke: #1f77b4"/>
     <use xlink:href="#m12a5b423ec" x="360.996118" y="68.936151" style="fill: #1f77b4; stroke: #1f77b4"/>
     <use xlink:href="#m12a5b423ec" x="358.045648" y="77.357908" style="fill: #1f77b4; stroke: #1f77b4"/>
     <use xlink:href="#m12a5b423ec" x="355.095178" y="76.831548" style="fill: #1f77b4; stroke: #1f77b4"/>
     <use xlink:href="#m12a5b423ec" x="352.144708" y="61.567113" style="fill: #1f77b4; stroke: #1f77b4"/>
     <use xlink:href="#m12a5b423ec" x="349.194238" y="84.200586" style="fill: #1f77b4; stroke: #1f77b4"/>
     <use xlink:href="#m12a5b423ec" x="346.243768" y="83.147866" style="fill: #1f77b4; stroke: #1f77b4"/>
     <use xlink:href="#m12a5b423ec" x="343.293298" y="84.726946" style="fill: #1f77b4; stroke: #1f77b4"/>
     <use xlink:href="#m12a5b423ec" x="340.342828" y="92.095983" style="fill: #1f77b4; stroke: #1f77b4"/>
     <use xlink:href="#m12a5b423ec" x="337.392357" y="107.360418" style="fill: #1f77b4; stroke: #1f77b4"/>
     <use xlink:href="#m12a5b423ec" x="334.441887" y="106.307699" style="fill: #1f77b4; stroke: #1f77b4"/>
     <use xlink:href="#m12a5b423ec" x="331.491417" y="67.357071" style="fill: #1f77b4; stroke: #1f77b4"/>
     <use xlink:href="#m12a5b423ec" x="328.540947" y="65.251632" style="fill: #1f77b4; stroke: #1f77b4"/>
     <use xlink:href="#m12a5b423ec" x="325.590477" y="68.409791" style="fill: #1f77b4; stroke: #1f77b4"/>
     <use xlink:href="#m12a5b423ec" x="322.640007" y="82.621506" style="fill: #1f77b4; stroke: #1f77b4"/>
     <use xlink:href="#m12a5b423ec" x="319.689537" y="101.57046" style="fill: #1f77b4; stroke: #1f77b4"/>
     <use xlink:href="#m12a5b423ec" x="316.739067" y="54.724435" style="fill: #1f77b4; stroke: #1f77b4"/>
     <use xlink:href="#m12a5b423ec" x="313.788596" y="85.253305" style="fill: #1f77b4; stroke: #1f77b4"/>
     <use xlink:href="#m12a5b423ec" x="310.838126" y="85.253305" style="fill: #1f77b4; stroke: #1f77b4"/>
     <use xlink:href="#m12a5b423ec" x="307.887656" y="95.780502" style="fill: #1f77b4; stroke: #1f77b4"/>
     <use xlink:href="#m12a5b423ec" x="304.937186" y="73.673389" style="fill: #1f77b4; stroke: #1f77b4"/>
     <use xlink:href="#m12a5b423ec" x="301.986716" y="85.253305" style="fill: #1f77b4; stroke: #1f77b4"/>
     <use xlink:href="#m12a5b423ec" x="299.036246" y="86.832385" style="fill: #1f77b4; stroke: #1f77b4"/>
     <use xlink:href="#m12a5b423ec" x="296.085776" y="91.569623" style="fill: #1f77b4; stroke: #1f77b4"/>
     <use xlink:href="#m12a5b423ec" x="293.135306" y="59.461674" style="fill: #1f77b4; stroke: #1f77b4"/>
     <use xlink:href="#m12a5b423ec" x="290.184836" y="75.252469" style="fill: #1f77b4; stroke: #1f77b4"/>
     <use xlink:href="#m12a5b423ec" x="287.234365" y="95.254142" style="fill: #1f77b4; stroke: #1f77b4"/>
     <use xlink:href="#m12a5b423ec" x="284.283895" y="69.46251" style="fill: #1f77b4; stroke: #1f77b4"/>
     <use xlink:href="#m12a5b423ec" x="281.333425" y="87.885105" style="fill: #1f77b4; stroke: #1f77b4"/>
     <use xlink:href="#m12a5b423ec" x="278.382955" y="83.147866" style="fill: #1f77b4; stroke: #1f77b4"/>
     <use xlink:href="#m12a5b423ec" x="275.432485" y="73.147029" style="fill: #1f77b4; stroke: #1f77b4"/>
     <use xlink:href="#m12a5b423ec" x="272.482015" y="63.146192" style="fill: #1f77b4; stroke: #1f77b4"/>
     <use xlink:href="#m12a5b423ec" x="269.531545" y="82.095146" style="fill: #1f77b4; stroke: #1f77b4"/>
     <use xlink:href="#m12a5b423ec" x="266.581075" y="69.46251" style="fill: #1f77b4; stroke: #1f77b4"/>
     <use xlink:href="#m12a5b423ec" x="263.630604" y="76.305188" style="fill: #1f77b4; stroke: #1f77b4"/>
     <use xlink:href="#m12a5b423ec" x="260.680134" y="89.464184" style="fill: #1f77b4; stroke: #1f77b4"/>
     <use xlink:href="#m12a5b423ec" x="257.729664" y="78.936987" style="fill: #1f77b4; stroke: #1f77b4"/>
     <use xlink:href="#m12a5b423ec" x="254.779194" y="76.831548" style="fill: #1f77b4; stroke: #1f77b4"/>
     <use xlink:href="#m12a5b423ec" x="251.828724" y="51.039916" style="fill: #1f77b4; stroke: #1f77b4"/>
     <use xlink:href="#m12a5b423ec" x="248.878254" y="85.779665" style="fill: #1f77b4; stroke: #1f77b4"/>
     <use xlink:href="#m12a5b423ec" x="245.927784" y="48.934477" style="fill: #1f77b4; stroke: #1f77b4"/>
     <use xlink:href="#m12a5b423ec" x="242.977314" y="100.517741" style="fill: #1f77b4; stroke: #1f77b4"/>
     <use xlink:href="#m12a5b423ec" x="240.026844" y="68.409791" style="fill: #1f77b4; stroke: #1f77b4"/>
     <use xlink:href="#m12a5b423ec" x="237.076373" y="42.618159" style="fill: #1f77b4; stroke: #1f77b4"/>
     <use xlink:href="#m12a5b423ec" x="234.125903" y="76.831548" style="fill: #1f77b4; stroke: #1f77b4"/>
     <use xlink:href="#m12a5b423ec" x="231.175433" y="86.832385" style="fill: #1f77b4; stroke: #1f77b4"/>
     <use xlink:href="#m12a5b423ec" x="228.224963" y="92.622343" style="fill: #1f77b4; stroke: #1f77b4"/>
     <use xlink:href="#m12a5b423ec" x="225.274493" y="74.726109" style="fill: #1f77b4; stroke: #1f77b4"/>
     <use xlink:href="#m12a5b423ec" x="222.324023" y="103.14954" style="fill: #1f77b4; stroke: #1f77b4"/>
     <use xlink:href="#m12a5b423ec" x="219.373553" y="92.095983" style="fill: #1f77b4; stroke: #1f77b4"/>
     <use xlink:href="#m12a5b423ec" x="216.423083" y="96.833222" style="fill: #1f77b4; stroke: #1f77b4"/>
     <use xlink:href="#m12a5b423ec" x="213.472612" y="89.990544" style="fill: #1f77b4; stroke: #1f77b4"/>
     <use xlink:href="#m12a5b423ec" x="210.522142" y="112.097657" style="fill: #1f77b4; stroke: #1f77b4"/>
     <use xlink:href="#m12a5b423ec" x="207.571672" y="121.572134" style="fill: #1f77b4; stroke: #1f77b4"/>
     <use xlink:href="#m12a5b423ec" x="204.621202" y="126.835732" style="fill: #1f77b4; stroke: #1f77b4"/>
     <use xlink:href="#m12a5b423ec" x="201.670732" y="129.993891" style="fill: #1f77b4; stroke: #1f77b4"/>
     <use xlink:href="#m12a5b423ec" x="198.720262" y="136.836569" style="fill: #1f77b4; stroke: #1f77b4"/>
     <use xlink:href="#m12a5b423ec" x="195.769792" y="155.259163" style="fill: #1f77b4; stroke: #1f77b4"/>
     <use xlink:href="#m12a5b423ec" x="192.819322" y="177.366276" style="fill: #1f77b4; stroke: #1f77b4"/>
     <use xlink:href="#m12a5b423ec" x="189.868851" y="205.789707" style="fill: #1f77b4; stroke: #1f77b4"/>
     <use xlink:href="#m12a5b423ec" x="186.918381" y="227.37046" style="fill: #1f77b4; stroke: #1f77b4"/>
     <use xlink:href="#m12a5b423ec" x="183.967911" y="220.001423" style="fill: #1f77b4; stroke: #1f77b4"/>
     <use xlink:href="#m12a5b423ec" x="181.017441" y="267.900167" style="fill: #1f77b4; stroke: #1f77b4"/>
     <use xlink:href="#m12a5b423ec" x="178.066971" y="260.53113" style="fill: #1f77b4; stroke: #1f77b4"/>
     <use xlink:href="#m12a5b423ec" x="175.116501" y="268.426527" style="fill: #1f77b4; stroke: #1f77b4"/>
     <use xlink:href="#m12a5b423ec" x="172.166031" y="267.373808" style="fill: #1f77b4; stroke: #1f77b4"/>
     <use xlink:href="#m12a5b423ec" x="169.215561" y="286.849121" style="fill: #1f77b4; stroke: #1f77b4"/>
     <use xlink:href="#m12a5b423ec" x="166.265091" y="273.163766" style="fill: #1f77b4; stroke: #1f77b4"/>
     <use xlink:href="#m12a5b423ec" x="163.31462" y="286.849121" style="fill: #1f77b4; stroke: #1f77b4"/>
     <use xlink:href="#m12a5b423ec" x="160.36415" y="264.215649" style="fill: #1f77b4; stroke: #1f77b4"/>
     <use xlink:href="#m12a5b423ec" x="157.41368" y="291.06" style="fill: #1f77b4; stroke: #1f77b4"/>
     <use xlink:href="#m12a5b423ec" x="154.46321" y="276.321925" style="fill: #1f77b4; stroke: #1f77b4"/>
     <use xlink:href="#m12a5b423ec" x="151.51274" y="253.162092" style="fill: #1f77b4; stroke: #1f77b4"/>
     <use xlink:href="#m12a5b423ec" x="148.56227" y="284.743682" style="fill: #1f77b4; stroke: #1f77b4"/>
     <use xlink:href="#m12a5b423ec" x="145.6118" y="259.47841" style="fill: #1f77b4; stroke: #1f77b4"/>
     <use xlink:href="#m12a5b423ec" x="142.66133" y="254.741172" style="fill: #1f77b4; stroke: #1f77b4"/>
     <use xlink:href="#m12a5b423ec" x="139.710859" y="241.582176" style="fill: #1f77b4; stroke: #1f77b4"/>
     <use xlink:href="#m12a5b423ec" x="136.760389" y="227.89682" style="fill: #1f77b4; stroke: #1f77b4"/>
     <use xlink:href="#m12a5b423ec" x="133.809919" y="183.682594" style="fill: #1f77b4; stroke: #1f77b4"/>
     <use xlink:href="#m12a5b423ec" x="130.859449" y="214.211464" style="fill: #1f77b4; stroke: #1f77b4"/>
     <use xlink:href="#m12a5b423ec" x="127.908979" y="195.26251" style="fill: #1f77b4; stroke: #1f77b4"/>
     <use xlink:href="#m12a5b423ec" x="124.958509" y="162.628201" style="fill: #1f77b4; stroke: #1f77b4"/>
     <use xlink:href="#m12a5b423ec" x="122.008039" y="152.101004" style="fill: #1f77b4; stroke: #1f77b4"/>
     <use xlink:href="#m12a5b423ec" x="119.057569" y="127.888452" style="fill: #1f77b4; stroke: #1f77b4"/>
     <use xlink:href="#m12a5b423ec" x="116.107099" y="125.256653" style="fill: #1f77b4; stroke: #1f77b4"/>
     <use xlink:href="#m12a5b423ec" x="113.156628" y="134.20477" style="fill: #1f77b4; stroke: #1f77b4"/>
     <use xlink:href="#m12a5b423ec" x="110.206158" y="118.413975" style="fill: #1f77b4; stroke: #1f77b4"/>
     <use xlink:href="#m12a5b423ec" x="107.255688" y="125.783013" style="fill: #1f77b4; stroke: #1f77b4"/>
     <use xlink:href="#m12a5b423ec" x="104.305218" y="110.518577" style="fill: #1f77b4; stroke: #1f77b4"/>
     <use xlink:href="#m12a5b423ec" x="101.354748" y="102.62318" style="fill: #1f77b4; stroke: #1f77b4"/>
     <use xlink:href="#m12a5b423ec" x="98.404278" y="99.465021" style="fill: #1f77b4; stroke: #1f77b4"/>
     <use xlink:href="#m12a5b423ec" x="95.453808" y="94.727782" style="fill: #1f77b4; stroke: #1f77b4"/>
     <use xlink:href="#m12a5b423ec" x="92.503338" y="101.57046" style="fill: #1f77b4; stroke: #1f77b4"/>
     <use xlink:href="#m12a5b423ec" x="89.552867" y="72.09431" style="fill: #1f77b4; stroke: #1f77b4"/>
     <use xlink:href="#m12a5b423ec" x="86.602397" y="70.51523" style="fill: #1f77b4; stroke: #1f77b4"/>
     <use xlink:href="#m12a5b423ec" x="83.651927" y="75.778828" style="fill: #1f77b4; stroke: #1f77b4"/>
     <use xlink:href="#m12a5b423ec" x="80.701457" y="57.356234" style="fill: #1f77b4; stroke: #1f77b4"/>
     <use xlink:href="#m12a5b423ec" x="77.750987" y="77.884268" style="fill: #1f77b4; stroke: #1f77b4"/>
     <use xlink:href="#m12a5b423ec" x="74.800517" y="86.832385" style="fill: #1f77b4; stroke: #1f77b4"/>
     <use xlink:href="#m12a5b423ec" x="71.850047" y="98.412301" style="fill: #1f77b4; stroke: #1f77b4"/>
     <use xlink:href="#m12a5b423ec" x="68.899577" y="69.98887" style="fill: #1f77b4; stroke: #1f77b4"/>
     <use xlink:href="#m12a5b423ec" x="65.949106" y="95.254142" style="fill: #1f77b4; stroke: #1f77b4"/>
     <use xlink:href="#m12a5b423ec" x="62.998636" y="78.410628" style="fill: #1f77b4; stroke: #1f77b4"/>
    </g>
   </g>
   <g id="line2d_30">
    <path d="M 62.998636 80.78864 
L 68.907618 81.083034 
L 73.339354 81.48994 
L 77.032468 82.024685 
L 79.986958 82.634207 
L 82.941449 83.458604 
L 85.89594 84.558273 
L 88.111808 85.606294 
L 90.327676 86.883519 
L 92.543544 88.427699 
L 94.759412 90.279668 
L 96.975281 92.48282 
L 99.191149 95.08236 
L 101.407017 98.124314 
L 103.622885 101.654289 
L 105.838753 105.71598 
L 108.054621 110.34945 
L 110.270489 115.589215 
L 112.486357 121.462169 
L 114.702225 127.985436 
L 116.918093 135.164221 
L 119.133962 142.989755 
L 122.088452 154.384883 
L 125.042943 166.777306 
L 128.736057 183.412288 
L 133.906416 207.986203 
L 139.815397 235.898701 
L 142.769888 248.891047 
L 144.985756 257.886102 
L 147.201624 266.055781 
L 149.417492 273.245203 
L 150.894738 277.423467 
L 152.371983 281.066137 
L 153.849228 284.140414 
L 155.326474 286.618296 
L 156.803719 288.477001 
L 157.542342 289.168559 
L 158.280965 289.699321 
L 159.019587 290.068048 
L 159.75821 290.273881 
L 160.496833 290.316338 
L 161.235455 290.19532 
L 161.974078 289.91111 
L 162.712701 289.464371 
L 163.451324 288.856147 
L 164.928569 287.161274 
L 166.405814 284.84221 
L 167.88306 281.920316 
L 169.360305 278.422279 
L 170.837551 274.379695 
L 172.314796 269.828604 
L 174.530664 262.136815 
L 176.746532 253.539706 
L 179.701023 240.946658 
L 183.394136 223.949281 
L 194.473477 171.713302 
L 197.427968 158.982207 
L 200.382459 147.192567 
L 203.336949 136.473159 
L 205.552817 129.181361 
L 207.768686 122.544617 
L 209.984554 116.560001 
L 212.200422 111.212298 
L 214.41629 106.47615 
L 216.632158 102.318211 
L 218.848026 98.699235 
L 221.063894 95.576026 
L 223.279762 92.903195 
L 225.49563 90.634694 
L 227.711498 88.725096 
L 229.927367 87.130634 
L 232.143235 85.809987 
L 234.359103 84.724843 
L 236.574971 83.840252 
L 239.529462 82.919006 
L 242.483952 82.23429 
L 246.177066 81.630089 
L 250.608802 81.167097 
L 255.779161 80.859232 
L 263.165388 80.656644 
L 276.460597 80.560682 
L 334.073167 80.546981 
L 431.571364 80.546981 
L 431.571364 80.546981 
" clip-path="url(#pc17894d88d)" style="fill: none; stroke: #ff7f0e; stroke-width: 1.5; stroke-linecap: square"/>
   </g>
   <g id="patch_3">
    <path d="M 44.57 303.64 
L 44.57 26.88 
" style="fill: none; stroke: #000000; stroke-width: 0.8; stroke-linejoin: miter; stroke-linecap: square"/>
   </g>
   <g id="patch_4">
    <path d="M 450 303.64 
L 450 26.88 
" style="fill: none; stroke: #000000; stroke-width: 0.8; stroke-linejoin: miter; stroke-linecap: square"/>
   </g>
   <g id="patch_5">
    <path d="M 44.57 303.64 
L 450 303.64 
" style="fill: none; stroke: #000000; stroke-width: 0.8; stroke-linejoin: miter; stroke-linecap: square"/>
   </g>
   <g id="patch_6">
    <path d="M 44.57 26.88 
L 450 26.88 
" style="fill: none; stroke: #000000; stroke-width: 0.8; stroke-linejoin: miter; stroke-linecap: square"/>
   </g>
   <g id="text_17">
    <!-- HOM Dip -->
    <g transform="translate(220.87 20.88) scale(0.12 -0.12)">
     <defs>
      <path id="DejaVuSans-48" d="M 628 4666 
L 1259 4666 
L 1259 2753 
L 3553 2753 
L 3553 4666 
L 4184 4666 
L 4184 0 
L 3553 0 
L 3553 2222 
L 1259 2222 
L 1259 0 
L 628 0 
L 628 4666 
z
" transform="scale(0.015625)"/>
      <path id="DejaVuSans-4f" d="M 2522 4238 
Q 1834 4238 1429 3725 
Q 1025 3213 1025 2328 
Q 1025 1447 1429 934 
Q 1834 422 2522 422 
Q 3209 422 3611 934 
Q 4013 1447 4013 2328 
Q 4013 3213 3611 3725 
Q 3209 4238 2522 4238 
z
M 2522 4750 
Q 3503 4750 4090 4092 
Q 4678 3434 4678 2328 
Q 4678 1225 4090 567 
Q 3503 -91 2522 -91 
Q 1538 -91 948 565 
Q 359 1222 359 2328 
Q 359 3434 948 4092 
Q 1538 4750 2522 4750 
z
" transform="scale(0.015625)"/>
      <path id="DejaVuSans-4d" d="M 628 4666 
L 1569 4666 
L 2759 1491 
L 3956 4666 
L 4897 4666 
L 4897 0 
L 4281 0 
L 4281 4097 
L 3078 897 
L 2444 897 
L 1241 4097 
L 1241 0 
L 628 0 
L 628 4666 
z
" transform="scale(0.015625)"/>
      <path id="DejaVuSans-44" d="M 1259 4147 
L 1259 519 
L 2022 519 
Q 2988 519 3436 956 
Q 3884 1394 3884 2338 
Q 3884 3275 3436 3711 
Q 2988 4147 2022 4147 
L 1259 4147 
z
M 628 4666 
L 1925 4666 
Q 3281 4666 3915 4102 
Q 4550 3538 4550 2338 
Q 4550 1131 3912 565 
Q 3275 0 1925 0 
L 628 0 
L 628 4666 
z
" transform="scale(0.015625)"/>
      <path id="DejaVuSans-70" d="M 1159 525 
L 1159 -1331 
L 581 -1331 
L 581 3500 
L 1159 3500 
L 1159 2969 
Q 1341 3281 1617 3432 
Q 1894 3584 2278 3584 
Q 2916 3584 3314 3078 
Q 3713 2572 3713 1747 
Q 3713 922 3314 415 
Q 2916 -91 2278 -91 
Q 1894 -91 1617 61 
Q 1341 213 1159 525 
z
M 3116 1747 
Q 3116 2381 2855 2742 
Q 2594 3103 2138 3103 
Q 1681 3103 1420 2742 
Q 1159 2381 1159 1747 
Q 1159 1113 1420 752 
Q 1681 391 2138 391 
Q 2594 391 2855 752 
Q 3116 1113 3116 1747 
z
" transform="scale(0.015625)"/>
     </defs>
     <use xlink:href="#DejaVuSans-48"/>
     <use xlink:href="#DejaVuSans-4f" transform="translate(75.195312 0)"/>
     <use xlink:href="#DejaVuSans-4d" transform="translate(153.90625 0)"/>
     <use xlink:href="#DejaVuSans-20" transform="translate(240.185547 0)"/>
     <use xlink:href="#DejaVuSans-44" transform="translate(271.972656 0)"/>
     <use xlink:href="#DejaVuSans-69" transform="translate(348.974609 0)"/>
     <use xlink:href="#DejaVuSans-70" transform="translate(376.757812 0)"/>
    </g>
   </g>
   <g id="legend_1">
    <g id="patch_7">
     <path d="M 51.57 298.64 
L 107.446563 298.64 
Q 109.446563 298.64 109.446563 296.64 
L 109.446563 268.28375 
Q 109.446563 266.28375 107.446563 266.28375 
L 51.57 266.28375 
Q 49.57 266.28375 49.57 268.28375 
L 49.57 296.64 
Q 49.57 298.64 51.57 298.64 
z
" style="fill: #ffffff; opacity: 0.8; stroke: #cccccc; stroke-linejoin: miter"/>
    </g>
    <g id="line2d_31">
     <g>
      <use xlink:href="#m12a5b423ec" x="63.57" y="274.382187" style="fill: #1f77b4; stroke: #1f77b4"/>
     </g>
    </g>
    <g id="text_18">
     <!-- Data -->
     <g transform="translate(81.57 277.882187) scale(0.1 -0.1)">
      <defs>
       <path id="DejaVuSans-61" d="M 2194 1759 
Q 1497 1759 1228 1600 
Q 959 1441 959 1056 
Q 959 750 1161 570 
Q 1363 391 1709 391 
Q 2188 391 2477 730 
Q 2766 1069 2766 1631 
L 2766 1759 
L 2194 1759 
z
M 3341 1997 
L 3341 0 
L 2766 0 
L 2766 531 
Q 2569 213 2275 61 
Q 1981 -91 1556 -91 
Q 1019 -91 701 211 
Q 384 513 384 1019 
Q 384 1609 779 1909 
Q 1175 2209 1959 2209 
L 2766 2209 
L 2766 2266 
Q 2766 2663 2505 2880 
Q 2244 3097 1772 3097 
Q 1472 3097 1187 3025 
Q 903 2953 641 2809 
L 641 3341 
Q 956 3463 1253 3523 
Q 1550 3584 1831 3584 
Q 2591 3584 2966 3190 
Q 3341 2797 3341 1997 
z
" transform="scale(0.015625)"/>
      </defs>
      <use xlink:href="#DejaVuSans-44"/>
      <use xlink:href="#DejaVuSans-61" transform="translate(77.001953 0)"/>
      <use xlink:href="#DejaVuSans-74" transform="translate(138.28125 0)"/>
      <use xlink:href="#DejaVuSans-61" transform="translate(177.490234 0)"/>
     </g>
    </g>
    <g id="line2d_32">
     <path d="M 53.57 289.060312 
L 63.57 289.060312 
L 73.57 289.060312 
" style="fill: none; stroke: #ff7f0e; stroke-width: 1.5; stroke-linecap: square"/>
    </g>
    <g id="text_19">
     <!-- Fit -->
     <g transform="translate(81.57 292.560312) scale(0.1 -0.1)">
      <defs>
       <path id="DejaVuSans-46" d="M 628 4666 
L 3309 4666 
L 3309 4134 
L 1259 4134 
L 1259 2759 
L 3109 2759 
L 3109 2228 
L 1259 2228 
L 1259 0 
L 628 0 
L 628 4666 
z
" transform="scale(0.015625)"/>
      </defs>
      <use xlink:href="#DejaVuSans-46"/>
      <use xlink:href="#DejaVuSans-69" transform="translate(50.269531 0)"/>
      <use xlink:href="#DejaVuSans-74" transform="translate(78.052734 0)"/>
     </g>
    </g>
   </g>
  </g>
 </g>
 <defs>
  <clipPath id="pc17894d88d">
   <rect x="44.57" y="26.88" width="405.43" height="276.76"/>
  </clipPath>
 </defs>
</svg>
